<?xml version="1.0" standalone="no"?>
<!DOCTYPE svg PUBLIC "-//W3C//DTD SVG 20010904//EN"
 "http://www.w3.org/TR/2001/REC-SVG-20010904/DTD/svg10.dtd">
<svg version="1.0" xmlns="http://www.w3.org/2000/svg"
 width="151.000000pt" height="151.000000pt" viewBox="0 0 151.000000 151.000000"
 preserveAspectRatio="xMidYMid meet">
<metadata>
Created by potrace 1.11, written by Peter Selinger 2001-2013
</metadata>
<g transform="translate(0.000000,151.000000) scale(0.100000,-0.100000)"
fill="#000000" stroke="none">
<path d="M788 1505 c-2 -1 -29 -5 -62 -9 -93 -10 -234 -46 -324 -84 -92 -38
-215 -114 -255 -158 -67 -72 -77 -209 -33 -443 5 -22 0 -51 -14 -87 -33 -90
-26 -105 63 -138 34 -13 49 -24 53 -42 7 -29 24 -22 24 10 0 18 -10 29 -44 44
-24 12 -46 27 -49 35 -16 43 87 142 203 194 88 39 319 106 443 129 67 12 147
7 166 -10 10 -9 31 -48 46 -86 26 -66 31 -71 69 -81 51 -14 148 -6 251 21 43
12 83 24 87 26 11 7 -27 79 -57 106 -25 24 -44 92 -60 211 -8 64 -48 169 -82
216 -38 53 -116 108 -177 126 -43 13 -239 28 -248 20z m214 -64 c69 -22 120
-71 160 -151 43 -86 96 -242 100 -290 l3 -34 -88 -13 -88 -14 -44 39 c-142
125 -448 95 -789 -78 -43 -22 -81 -40 -83 -40 -2 0 -3 14 -1 32 3 28 12 37 88
80 102 58 233 110 355 139 50 12 93 25 96 28 4 3 3 16 -2 29 -8 22 -13 23 -56
18 -75 -10 -237 -54 -336 -91 -50 -19 -92 -33 -94 -31 -2 1 50 28 114 59 119
56 194 84 291 107 52 12 60 22 43 49 -8 13 -19 13 -76 2 -79 -16 -223 -59
-318 -95 -37 -14 -67 -23 -67 -21 0 2 46 26 103 53 103 50 226 95 292 108 35
6 42 17 26 42 -7 12 -19 12 -67 2 -57 -12 -237 -71 -319 -104 -75 -31 -8 12
100 63 109 53 226 94 326 115 76 17 276 15 331 -3z"/>
<path d="M980 836 c0 -45 -127 -124 -237 -149 -33 -7 -83 29 -101 73 -10 24
-24 40 -34 40 -18 0 -53 -40 -63 -71 -4 -11 -10 -17 -15 -14 -8 5 -26 83 -22
98 3 10 -46 9 -52 -2 -3 -5 -8 -28 -10 -51 -2 -26 -12 -49 -25 -62 -17 -15
-21 -27 -16 -57 5 -32 -1 -45 -40 -101 -25 -35 -45 -71 -45 -81 0 -26 25 -41
67 -37 29 2 39 8 41 23 7 35 17 35 19 0 2 -33 34 -109 52 -119 11 -7 24 41 15
57 -5 9 -3 9 6 0 11 -10 18 -9 37 9 13 12 23 28 23 37 0 12 3 11 13 -3 19 -26
63 -18 60 12 -4 29 5 28 17 -3 7 -18 17 -25 35 -25 14 0 25 5 25 10 0 6 12 4
29 -4 35 -19 42 -13 30 27 l-9 32 24 -30 c20 -24 26 -27 39 -17 8 7 13 23 11
35 l-5 22 12 -22 c14 -28 21 -28 42 -5 14 16 13 23 -13 85 -19 44 -25 67 -17
68 7 1 26 2 43 4 75 6 157 48 169 86 5 16 -3 29 -34 56 -23 19 -41 40 -41 47
0 7 -7 21 -15 32 -14 19 -14 19 -15 0z m-420 -183 c29 -17 44 -47 55 -110 6
-38 6 -38 -31 -18 -16 8 -36 15 -45 15 -18 0 -41 -22 -38 -36 3 -21 -2 -35
-11 -29 -28 17 -70 155 -57 189 8 19 88 13 127 -11z m171 -84 c24 -23 29 -30
12 -16 -18 14 -42 28 -53 32 -11 3 -20 11 -20 16 0 18 18 9 61 -32z"/>
<path d="M181 687 c-6 -8 -12 -24 -13 -37 -2 -18 4 -25 31 -34 18 -7 39 -20
47 -31 8 -10 14 -14 14 -7 0 6 -14 22 -31 34 -25 19 -30 29 -27 55 4 35 -3 41
-21 20z"/>
<path d="M1117 603 c-3 -5 -8 -30 -12 -58 -3 -27 -8 -51 -10 -53 -2 -2 -13 10
-26 27 -21 28 -47 39 -61 26 -3 -3 3 -29 13 -58 10 -28 18 -67 19 -86 0 -47
-36 -117 -71 -138 -16 -10 -29 -26 -29 -36 0 -15 -5 -18 -22 -14 -31 8 -58
-10 -58 -38 0 -24 0 -25 -19 -6 -21 21 -71 18 -71 -5 0 -17 -12 -18 -27 -3
-13 13 -46 -17 -36 -34 3 -7 -4 -3 -16 8 -19 16 -24 17 -31 5 -14 -21 -12 -29
18 -85 23 -43 32 -50 60 -53 35 -2 37 3 22 43 -10 26 -9 26 29 20 21 -3 52 -9
68 -14 25 -7 40 -4 82 21 59 33 58 33 65 108 5 68 7 72 15 36 6 -29 7 -28 87
63 l81 92 -28 82 c-15 45 -29 99 -31 120 -2 38 -4 42 -11 30z"/>
<path d="M240 510 c-33 -64 -24 -84 41 -93 l37 -4 -10 34 c-5 18 -8 41 -7 51
6 66 -30 73 -61 12z"/>
<path d="M885 423 c-11 -10 -26 -18 -32 -19 -30 -2 -33 -5 -33 -26 -1 -21 -2
-21 -11 -5 -11 19 -49 23 -49 5 0 -9 -3 -9 -12 0 -15 15 -55 16 -60 1 -2 -6
-14 -5 -32 5 -33 17 -46 13 -46 -12 0 -13 -2 -13 -14 3 -12 16 -16 17 -30 6
-9 -7 -16 -24 -16 -37 0 -14 -5 -23 -12 -21 -20 4 -21 -38 -1 -62 16 -19 24
-21 65 -15 27 4 45 11 42 16 -4 6 2 5 13 -1 27 -14 59 8 50 35 -7 19 -7 19 7
0 20 -25 46 -13 47 21 0 27 1 27 9 6 7 -16 18 -23 37 -23 21 0 24 -3 15 -12
-17 -17 -15 -67 3 -75 20 -7 26 -1 34 39 6 25 3 40 -12 63 -11 17 -15 25 -8
19 15 -14 51 -6 51 11 0 7 9 11 23 8 14 -3 29 2 37 12 12 14 11 20 -2 43 -21
34 -38 38 -63 15z"/>
<path d="M947 352 c-21 -23 -21 -33 -3 -58 14 -19 15 -19 39 5 22 20 24 27 15
47 -13 29 -29 30 -51 6z"/>
<path d="M889 314 c-7 -9 -13 -28 -13 -42 0 -22 5 -27 24 -24 32 3 33 6 26 47
-8 38 -17 43 -37 19z"/>
<path d="M748 266 c-15 -8 -29 -12 -31 -9 -3 2 -16 -1 -29 -8 -26 -15 -51 -20
-90 -20 -34 0 -34 -3 -7 -41 18 -25 26 -29 56 -25 44 6 47 10 33 39 l-11 23
19 -24 c26 -33 56 -22 49 17 l-6 27 12 -27 c7 -19 18 -28 33 -28 20 0 22 4 20
42 -3 48 -10 53 -48 34z"/>
<path d="M552 203 c24 -49 34 -62 55 -72 22 -10 21 -6 -12 34 -34 41 -53 57
-43 38z"/>
</g>
</svg>
