<?xml version="1.0" encoding="UTF-8"?>
<!DOCTYPE svg PUBLIC "-//W3C//DTD SVG 1.1//EN" "http://www.w3.org/Graphics/SVG/1.1/DTD/svg11.dtd">
<svg xmlns="http://www.w3.org/2000/svg" xmlns:xlink="http://www.w3.org/1999/xlink">
    <defs>

        <svg xml:space="preserve" x="0px" y="0px" version="1.1" xmlns="http://www.w3.org/2000/svg" xmlns:xlink="http://www.w3.org/1999/xlink" viewBox="0 0 35.79 32.25" id="strange">
            <defs>
            <style>.cls-1{fill-rule:evenodd;fill:url(#Cast_Iron);}</style>
            <linearGradient id="Cast_Iron" y1="-15417.21" x2="35.79" y2="-15417.21" gradientTransform="matrix(1, 0, 0, -1, 0, -15401.08)" gradientUnits="userSpaceOnUse">
            <stop offset="0.01" stop-color="#909094"/><stop offset="0.53" stop-color="#a3a2a2"/><stop offset="1" stop-color="#5f5e60"/></linearGradient>
            </defs>
            <g id="Layer_2" data-name="Layer 2">
            <g id="katman_1" data-name="katman 1"><g id="_Group_" data-name="&lt;Group&gt;"><path id="_Compound_Path_" data-name="&lt;Compound Path&gt;" class="cls-1" d="M32.62,0a3.2,3.2,0,0,0-3.21,3.18,3.47,3.47,0,0,0,.23,1.21L24.42,9.62a8.1,8.1,0,0,0-4.76-1.57,8,8,0,0,0-4,1.1L12.34,5.37a3.41,3.41,0,0,0,.34-1.43A3.19,3.19,0,1,0,9.5,7.13a3.5,3.5,0,0,0,1-.15l3.25,3.73a8,8,0,0,0-2,5.33A8.15,8.15,0,0,0,12,18.38l-7.16,5.1A3.07,3.07,0,0,0,3.19,23a3.19,3.19,0,1,0,3.18,3.2,2.85,2.85,0,0,0-.07-.71l6.84-4.86a7.89,7.89,0,0,0,3.5,2.8l-.76,2.15a3.19,3.19,0,1,0,3.5,3.19,3.15,3.15,0,0,0-1.13-2.42L19.07,24a5.82,5.82,0,0,0,.59,0,8,8,0,0,0,3-.56l3.42,4.12A3.12,3.12,0,0,0,25.69,29a3.19,3.19,0,1,0,3.18-3.18A3.28,3.28,0,0,0,28,26l-3.18-3.84A8,8,0,0,0,26.16,11.4l5.25-5.27a3.07,3.07,0,0,0,1.21.24,3.19,3.19,0,0,0,0-6.37Zm-13,10.93a5.27,5.27,0,1,1-5.26,5.28,5.27,5.27,0,0,1,5.26-5.28Z"/>
            </g></g></g>
        </svg>
        
        <svg xml:space="preserve" x="0px" y="0px" version="1.1" xmlns="http://www.w3.org/2000/svg" xmlns:xlink="http://www.w3.org/1999/xlink" viewBox="0 0 32.63 46.77" id="notifications">
            <defs>
                <style>.cls-1{fill-rule:evenodd;fill:url(#Cast_Iron);}</style>
                <linearGradient id="Cast_Iron" y1="-15407.69" x2="32.63" y2="-15407.69" gradientTransform="matrix(1, 0, 0, -1, 0, -15384.3)" gradientUnits="userSpaceOnUse"><stop offset="0.01" stop-color="#909094"/><stop offset="0.53" stop-color="#a3a2a2"/><stop offset="1" stop-color="#5f5e60"/></linearGradient></defs><title>Asset 2</title><g id="Layer_2" data-name="Layer 2"><g id="katman_1" data-name="katman 1"><g id="_Group_" data-name="&lt;Group&gt;"><path id="_Compound_Path_" data-name="&lt;Compound Path&gt;" class="cls-1" d="M31.79,32.07H29.13V19.32c0-8.2-5.46-12.61-11.32-13.24V1.47A1.49,1.49,0,0,0,16.31,0h0a1.47,1.47,0,0,0-1.47,1.47V6.08C9,6.71,3.52,11.14,3.52,19.32V32.07H.85a.86.86,0,0,0-.85.86v4.52a.86.86,0,0,0,.85.86H31.77a.85.85,0,0,0,.86-.86V32.93a.84.84,0,0,0-.84-.86ZM16.17,46.77c2.75,0,5-2.48,5-5.59H11.21c0,3.11,2.24,5.59,5,5.59ZM11.37,11a.52.52,0,0,1,.3,0,.49.49,0,0,1,.25.18.42.42,0,0,1,0,.29.39.39,0,0,1-.18.24,8.89,8.89,0,0,0-2.54,1.94A6.9,6.9,0,0,0,7.77,16a8.37,8.37,0,0,0-.58,2.63,15.63,15.63,0,0,0,.06,2.89h0a.36.36,0,0,1-.1.29h0a.39.39,0,0,1-.26.14h0a.55.55,0,0,1-.28-.07v0a.37.37,0,0,1-.13-.27h0a15.35,15.35,0,0,1-.07-3A9.93,9.93,0,0,1,7,15.68a8.33,8.33,0,0,1,1.59-2.53A10.35,10.35,0,0,1,11.37,11Zm2.56,2.67a.31.31,0,0,1,.29,0h0a.37.37,0,0,1,.22.18h0a.37.37,0,0,1,0,.29h0a.35.35,0,0,1-.18.21h0A9.07,9.07,0,0,0,12.15,16,6.16,6.16,0,0,0,11,17.91a7.44,7.44,0,0,0-.48,2.19,12.44,12.44,0,0,0,.06,2.43h0a.42.42,0,0,1-.34.4.34.34,0,0,1-.28-.08h0a.31.31,0,0,1-.14-.26h0A14.79,14.79,0,0,1,9.72,20a8,8,0,0,1,.54-2.39,6.93,6.93,0,0,1,1.33-2.15,8.72,8.72,0,0,1,2.34-1.77Zm-1.46-.92a.34.34,0,0,1,.28,0A.32.32,0,0,1,13,13h0a.54.54,0,0,1,0,.28h0a.48.48,0,0,1-.18.24h0a7.69,7.69,0,0,0-2.14,1.61A6.06,6.06,0,0,0,9.5,17,7.15,7.15,0,0,0,9,19.17a14.17,14.17,0,0,0,0,2.43h0a.37.37,0,0,1-.08.28.46.46,0,0,1-.25.13.4.4,0,0,1-.28-.1h0a.48.48,0,0,1-.14-.24h0a12.25,12.25,0,0,1,0-2.56,8,8,0,0,1,.52-2.4,6.9,6.9,0,0,1,1.34-2.15,9.2,9.2,0,0,1,2.32-1.77Z"/></g></g></g>
        </svg>

        <svg xml:space="preserve" x="0px" y="0px" version="1.1" xmlns="http://www.w3.org/2000/svg" viewBox="0 0 30.88 33.06" id="search">
            <g id="Layer_2" data-name="Layer 2"><g id="katman_1" data-name="katman 1"><g id="_Group_" data-name="&lt;Group&gt;"><g id="_Group_2" data-name="&lt;Group&gt;"><g id="_Group_3" data-name="&lt;Group&gt;"><path id="_Compound_Path_" data-name="&lt;Compound Path&gt;" d="M9.81,0a9.81,9.81,0,1,0,9.81,9.81A9.82,9.82,0,0,0,9.81,0Zm0,17.44a7.63,7.63,0,1,1,7.63-7.63A7.64,7.64,0,0,1,9.81,17.44Z"/></g></g><g id="_Group_4" data-name="&lt;Group&gt;"><g id="_Group_5" data-name="&lt;Group&gt;"><path id="_Path_" data-name="&lt;Path&gt;" d="M9.81,13.08a3.27,3.27,0,0,1,0-6.54,1.09,1.09,0,0,0,0-2.18,5.45,5.45,0,0,0,0,10.9,1.09,1.09,0,0,0,0-2.18Z"/></g></g><g id="_Group_6" data-name="&lt;Group&gt;"><g id="_Group_7" data-name="&lt;Group&gt;"><path id="_Path_2" data-name="&lt;Path&gt;" d="M21.4,22,16,16.67a1.09,1.09,0,0,0-1.54,1.54l5.37,5.37A1.09,1.09,0,0,0,21.4,22Z"/></g></g><g id="_Group_8" data-name="&lt;Group&gt;"><g id="_Group_9" data-name="&lt;Group&gt;"><path id="_Compound_Path_2" data-name="&lt;Compound Path&gt;" d="M30.56,28.11,22.94,20.5a1.08,1.08,0,0,0-1.54,0l-3.08,3.08a1.08,1.08,0,0,0,0,1.54l7.61,7.62a1.1,1.1,0,0,0,1.55,0l3.08-3.09A1.1,1.1,0,0,0,30.56,28.11ZM26.7,30.43l-6.07-6.08,1.54-1.54,6.08,6.07Z"/></g></g></g></g></g>
        </svg>

        <svg xml:space="preserve" x="0px" y="0px" version="1.1" xmlns="http://www.w3.org/2000/svg" viewBox="0 0 21.48 11.36" id="arrow-down">
            <g id="Layer_2" data-name="Layer 2"><g id="katman_1" data-name="katman 1"><g id="_Group_" data-name="&lt;Group&gt;"><path class="cls-1" d="M10.74,11.36a3.33,3.33,0,0,1-2.41-1L0,1.36,1.46,0,9.79,8.94a1.32,1.32,0,0,0,1.9,0L20,0l1.46,1.36L13.16,10.3A3.34,3.34,0,0,1,10.74,11.36Z"/></g></g></g>
        </svg>

        <svg xml:space="preserve" x="0px" y="0px" version="1.1" xmlns="http://www.w3.org/2000/svg" xmlns:xlink="http://www.w3.org/1999/xlink" viewBox="0 0 21.44 22.42" id='twitch'>
            <g id="Layer_2" data-name="Layer 2"><g id="katman_1" data-name="katman 1"><g id="_Group_" data-name="&lt;Group&gt;"><path id="_Compound_Path_" data-name="&lt;Compound Path&gt;" class="cls-1" d="M1.46,0,0,3.9V19.49H5.36v2.93H8.28l2.92-2.93h4.39l5.85-5.84V0Zm2,2H19.49V12.67l-3.41,3.41H10.72L7.8,19V16.08H3.41ZM8.77,11.7h2V5.85h-2Zm5.36,0h1.95V5.85H14.13Z"/></g></g></g>
        </svg>

        <svg xml:space="preserve" x="0px" y="0px" version="1.1" xmlns="http://www.w3.org/2000/svg" xmlns:xlink="http://www.w3.org/1999/xlink" viewBox="0 0 24.84 17.37" id='youtube'>
            <g id="Layer_2" data-name="Layer 2"><g id="katman_1" data-name="katman 1"><path id="_Compound_Path_" data-name="&lt;Compound Path&gt;" class="cls-1" d="M13.32,17.37c-3.53,0-6.24-.06-8.95-.28-.45,0-.89-.1-1.33-.18A3.13,3.13,0,0,1,.43,14.34a23,23,0,0,1-.38-3.5A42.28,42.28,0,0,1,.15,5.1c.06-.66.14-1.32.26-2A3.14,3.14,0,0,1,3.34.37C4.59.23,5.85.12,7.11.09,9.69,0,12.28,0,14.86,0c1.94,0,3.88.17,5.82.27a9.27,9.27,0,0,1,1,.14,3.11,3.11,0,0,1,2.69,2.67,22.45,22.45,0,0,1,.37,3.47,40.53,40.53,0,0,1-.1,5.62,17.52,17.52,0,0,1-.32,2.29,3,3,0,0,1-2.65,2.46c-1.07.15-2.16.24-3.25.29C16.48,17.3,14.49,17.34,13.32,17.37Zm-3.36-5,6.43-3.69L10,5Z"/></g></g>
        </svg>

        <svg xml:space="preserve" x="0px" y="0px" version="1.1" xmlns="http://www.w3.org/2000/svg" xmlns:xlink="http://www.w3.org/1999/xlink" viewBox="0 0 39.67 18.05" id='steam'>
            <g id="Layer_2" data-name="Layer 2"><g id="katman_1" data-name="katman 1"><path id="_Compound_Path_" data-name="&lt;Compound Path&gt;" class="cls-1" d="M37.19,5.34a3,3,0,0,1-3,2.89,2.83,2.83,0,0,1-2.83-2.89,2.83,2.83,0,0,1,2.83-2.86A3,3,0,0,1,37.19,5.34ZM34.19,0a5.38,5.38,0,0,0-5.31,5.33l-3.36,4.79a2.2,2.2,0,0,0-.36,0,4.85,4.85,0,0,0-2.12.57L7.93,4.56A4,4,0,1,0,4,9.43a3.77,3.77,0,0,0,2.05-.57L21.27,15a3.83,3.83,0,0,0,3.89,3.1,4,4,0,0,0,3.9-3.56l5.13-3.75a5.45,5.45,0,0,0,5.48-5.38A5.44,5.44,0,0,0,34.19,0Zm0,1.77a3.6,3.6,0,1,1-3.54,3.59,3.57,3.57,0,0,1,3.54-3.59ZM4,2.48A3,3,0,0,1,6.62,4L5.15,3.45A2.35,2.35,0,0,0,3.4,7.8l1.24.5A2.62,2.62,0,0,1,4,8.37,2.95,2.95,0,0,1,4,2.48Zm21.16,8.67A2.87,2.87,0,0,1,28,14.1a2.92,2.92,0,0,1-5.48,1.38,9.61,9.61,0,0,0,1.41.62,2.33,2.33,0,0,0,3-1.31,2.46,2.46,0,0,0-1.24-3.08l-1.23-.49a4.15,4.15,0,0,1,.7-.07Z"/></g></g>
        </svg>

        <svg xml:space="preserve" x="0px" y="0px" version="1.1" xmlns="http://www.w3.org/2000/svg" xmlns:xlink="http://www.w3.org/1999/xlink" viewBox="0 0 18.88 15.1" id='photo-camera'>
            <g id="Layer_2" data-name="Layer 2"><g id="katman_1" data-name="katman 1"><g id="_Group_" data-name="&lt;Group&gt;"><g id="_Group_2" data-name="&lt;Group&gt;"><path id="_Compound_Path_" data-name="&lt;Compound Path&gt;" class="cls-1" d="M9.44,5.66A2.84,2.84,0,1,0,12.27,8.5,2.84,2.84,0,0,0,9.44,5.66ZM17,2.83H14.73A.84.84,0,0,1,14,2.29L13.4.54A.85.85,0,0,0,12.65,0H6.23a.85.85,0,0,0-.75.54L4.9,2.29a.84.84,0,0,1-.75.54H1.89A1.89,1.89,0,0,0,0,4.72v8.5A1.89,1.89,0,0,0,1.89,15.1H17a1.89,1.89,0,0,0,1.89-1.88V4.72A1.89,1.89,0,0,0,17,2.83ZM9.44,13.22A4.72,4.72,0,1,1,14.16,8.5,4.72,4.72,0,0,1,9.44,13.22ZM16.33,6a.66.66,0,0,1,0-1.32.66.66,0,0,1,0,1.32Z"/></g></g></g></g>
        </svg>

        <svg xml:space="preserve" x="0px" y="0px" version="1.1" xmlns="http://www.w3.org/2000/svg" xmlns:xlink="http://www.w3.org/1999/xlink" viewBox="0 0 23.17 16.12" id='video-camera'>
            <g id="Layer_2" data-name="Layer 2"><g id="katman_1" data-name="katman 1"><g id="_Group_" data-name="&lt;Group&gt;"><path id="_Path_" data-name="&lt;Path&gt;" class="cls-1" d="M15.87,3.57l-1.79-.06.07-1.9A1.16,1.16,0,0,0,13,.42L.87,0a.39.39,0,0,0-.4.37A.39.39,0,0,0,.84.76L13,1.19a.38.38,0,0,1,.37.39l-.07,1.9L1.64,3.08A1.25,1.25,0,0,0,.34,4.29L0,14a1.26,1.26,0,0,0,1.22,1.3l14.22.5a1.26,1.26,0,0,0,1.3-1.22l.34-9.66A1.25,1.25,0,0,0,15.87,3.57Z"/><path id="_Path_2" data-name="&lt;Path&gt;" class="cls-1" d="M21.79,3.61a1.41,1.41,0,0,0-.61.11L17.83,5.3l-.31,8.86L20.75,16a1.4,1.4,0,0,0,.6.15,1.42,1.42,0,0,0,1.48-1.38l.34-9.65A1.42,1.42,0,0,0,21.79,3.61Z"/></g></g></g>
        </svg>

        <svg xml:space="preserve" x="0px" y="0px" version="1.1" xmlns="http://www.w3.org/2000/svg" xmlns:xlink="http://www.w3.org/1999/xlink" viewBox="0 0 32.04 21.13" id='gamepad'>
            <g id="Layer_2" data-name="Layer 2"><g id="katman_1" data-name="katman 1"><g id="_Group_" data-name="&lt;Group&gt;"><g id="_Group_2" data-name="&lt;Group&gt;"><g id="_Group_3" data-name="&lt;Group&gt;"><g id="_Group_4" data-name="&lt;Group&gt;"><path class="cls-1" d="M31.89,14.57A29.36,29.36,0,0,0,31,8.83,22,22,0,0,0,29.24,4C26.47-.87,23.46-.12,19.86.83a25.77,25.77,0,0,1-3.64.72h-.4A25.49,25.49,0,0,1,12.18.83C8.58-.08,5.57-.87,2.79,4A20.57,20.57,0,0,0,1,8.87a30.13,30.13,0,0,0-.87,5.74A10.67,10.67,0,0,0,.7,19.12,3,3,0,0,0,2.6,20.9a3.88,3.88,0,0,0,2.53-.27A18.85,18.85,0,0,0,10.2,17c1.23-1.19,3.52-1.79,5.82-1.79s4.59.6,5.82,1.79a18.69,18.69,0,0,0,5.07,3.6,4.16,4.16,0,0,0,2.53.27,3,3,0,0,0,1.9-1.82A10.65,10.65,0,0,0,31.89,14.57Zm-1.9,4a1.56,1.56,0,0,1-.95,1,2.7,2.7,0,0,1-1.62-.2A16,16,0,0,1,22.83,16c-1.51-1.51-4.16-2.26-6.81-2.26s-5.31.75-6.85,2.18a16.44,16.44,0,0,1-4.59,3.28,2.45,2.45,0,0,1-1.63.2,1.6,1.6,0,0,1-1-1,9.49,9.49,0,0,1-.39-3.8,27,27,0,0,1,.83-5.46A18.75,18.75,0,0,1,4.1,4.71C6.28.79,8.81,1.43,11.82,2.22A23.19,23.19,0,0,0,15.7,3h.6a22.59,22.59,0,0,0,3.91-.75c3-.75,5.55-1.43,7.72,2.49A18.11,18.11,0,0,1,29.6,9.19a30.49,30.49,0,0,1,.83,5.46A9.07,9.07,0,0,1,30,18.53Z"/><path class="cls-1" d="M3.42,21.13a3.55,3.55,0,0,1-.86-.1,3.14,3.14,0,0,1-2-1.86A10.8,10.8,0,0,1,0,14.61,29.91,29.91,0,0,1,.89,8.84,20,20,0,0,1,2.69,4C5.49-1,8.57-.21,12.15.7l.36.08a23.77,23.77,0,0,0,3.32.64h.39a25.32,25.32,0,0,0,3.3-.63l.31-.08C23.41-.23,26.51-1,29.35,3.94A21.66,21.66,0,0,1,31.14,8.8,30,30,0,0,1,32,14.57h0a10.58,10.58,0,0,1-.57,4.56,3.07,3.07,0,0,1-2,1.89,4.12,4.12,0,0,1-2.62-.28,18.46,18.46,0,0,1-5.11-3.62C20.62,16,18.48,15.37,16,15.37s-4.61.65-5.74,1.74a18.29,18.29,0,0,1-5.1,3.63A4.42,4.42,0,0,1,3.42,21.13ZM8.26.27C6.32.27,4.58,1.12,2.9,4.1A20.37,20.37,0,0,0,1.13,8.9a29.38,29.38,0,0,0-.86,5.72,10.61,10.61,0,0,0,.54,4.45,2.88,2.88,0,0,0,1.82,1.71,3.69,3.69,0,0,0,2.45-.27,18.14,18.14,0,0,0,5-3.58c1.18-1.13,3.38-1.81,5.91-1.81s4.73.68,5.9,1.82a18.28,18.28,0,0,0,5,3.57,3.91,3.91,0,0,0,2.46.27A2.82,2.82,0,0,0,31.22,19a10.23,10.23,0,0,0,.55-4.45h0a30.21,30.21,0,0,0-.87-5.72,21.3,21.3,0,0,0-1.77-4.8C26.39-.76,23.38,0,19.89,1L19.58,1a23.91,23.91,0,0,1-3.35.64h-.41A23.65,23.65,0,0,1,12.45,1L12.09.94A16.17,16.17,0,0,0,8.26.27ZM28.61,19.7a3.62,3.62,0,0,1-1.23-.26,16.34,16.34,0,0,1-4.64-3.31c-1.39-1.4-3.9-2.23-6.72-2.23a10.27,10.27,0,0,0-6.77,2.15,16.15,16.15,0,0,1-4.63,3.31,2.5,2.5,0,0,1-1.71.2,1.68,1.68,0,0,1-1-1.06,9.58,9.58,0,0,1-.41-3.86,27.72,27.72,0,0,1,.84-5.49A19,19,0,0,1,4,4.65C6.23.62,8.84,1.3,11.85,2.1a23.9,23.9,0,0,0,3.86.75h.58a23.44,23.44,0,0,0,3.89-.75l.08,0c3-.75,5.58-1.4,7.78,2.57a18,18,0,0,1,1.68,4.51,30,30,0,0,1,.83,5.48,9.46,9.46,0,0,1-.44,3.94h0a1.69,1.69,0,0,1-1,1.06A1.78,1.78,0,0,1,28.61,19.7ZM16,13.65c2.88,0,5.46.86,6.9,2.3a15.86,15.86,0,0,0,4.55,3.26A2.62,2.62,0,0,0,29,19.4a1.45,1.45,0,0,0,.87-.92h0a9.1,9.1,0,0,0,.42-3.83,29.51,29.51,0,0,0-.82-5.43,18.46,18.46,0,0,0-1.65-4.45c-2.12-3.8-4.5-3.2-7.51-2.45l-.08,0a23.73,23.73,0,0,1-3.93.76H15.7a24.1,24.1,0,0,1-3.91-.76C8.87,1.57,6.36.91,4.21,4.77A18.58,18.58,0,0,0,2.56,9.22a27.11,27.11,0,0,0-.83,5.44,9.36,9.36,0,0,0,.39,3.74,1.45,1.45,0,0,0,.87.92,2.27,2.27,0,0,0,1.54-.2,15.58,15.58,0,0,0,4.55-3.26A10.52,10.52,0,0,1,16,13.65Z"/></g></g></g><g id="_Group_5" data-name="&lt;Group&gt;"><g id="_Group_6" data-name="&lt;Group&gt;"><g id="_Group_7" data-name="&lt;Group&gt;"><path class="cls-1" d="M12.38,6.85A2.42,2.42,0,0,0,11,6.18a2.29,2.29,0,0,0-.63-1.39l0,0a2.27,2.27,0,0,0-1.63-.67A2.37,2.37,0,0,0,7,4.75a2.29,2.29,0,0,0-.67,1.43,2.34,2.34,0,0,0-1.43.63l0,0a2.27,2.27,0,0,0-.67,1.62,2.37,2.37,0,0,0,.67,1.63,2.24,2.24,0,0,0,1.47.67A2.17,2.17,0,0,0,7,12.2a2.27,2.27,0,0,0,1.62.67,2.37,2.37,0,0,0,1.63-.67A2.48,2.48,0,0,0,11,10.77a2.17,2.17,0,0,0,1.43-.67,2.27,2.27,0,0,0,.67-1.63A2.37,2.37,0,0,0,12.38,6.85Zm-1,2.22a.81.81,0,0,1-.6.23h-.55a.75.75,0,0,0-.75.76v.51a.81.81,0,0,1-.24.6.88.88,0,0,1-1.19,0,.81.81,0,0,1-.24-.6V10a.74.74,0,0,0-.75-.75H6.52A.81.81,0,0,1,5.92,9a.83.83,0,0,1,0-1.15l0,0a1,1,0,0,1,.56-.2h.55a.74.74,0,0,0,.75-.75V6.34a.84.84,0,0,1,1.43-.6l0,0a1,1,0,0,1,.2.56v.55a.74.74,0,0,0,.75.75h.55a.81.81,0,0,1,.6.24.88.88,0,0,1,0,1.19Z"/><path class="cls-1" d="M8.65,13a2.37,2.37,0,0,1-1.71-.71,2.22,2.22,0,0,1-.7-1.39,2.37,2.37,0,0,1-1.44-.7,2.51,2.51,0,0,1-.7-1.72,2.4,2.4,0,0,1,.7-1.71l0,0a2.56,2.56,0,0,1,1.4-.66A2.45,2.45,0,0,1,8.65,4a2.41,2.41,0,0,1,1.72.71l0,0a2.41,2.41,0,0,1,.65,1.36,2.62,2.62,0,0,1,1.4.7h0a2.47,2.47,0,0,1,.71,1.71,2.37,2.37,0,0,1-.71,1.72,2.18,2.18,0,0,1-1.4.69,2.6,2.6,0,0,1-.69,1.4A2.47,2.47,0,0,1,8.65,13Zm0-8.79a2.2,2.2,0,0,0-2.17,2v.1H6.37A2.27,2.27,0,0,0,5,6.9l0,0a2.14,2.14,0,0,0-.63,1.53A2.2,2.2,0,0,0,5,10a2.12,2.12,0,0,0,1.39.64h.11v.11a1.94,1.94,0,0,0,.64,1.34,2.13,2.13,0,0,0,1.53.64,2.2,2.2,0,0,0,1.54-.63,2.34,2.34,0,0,0,.64-1.35v-.11h.11A2,2,0,0,0,12.28,10a2.13,2.13,0,0,0,.64-1.54,2.2,2.2,0,0,0-.63-1.53,2.28,2.28,0,0,0-1.35-.64h-.11v-.1a2.15,2.15,0,0,0-.6-1.31l0,0A2.13,2.13,0,0,0,8.65,4.2Zm0,7.33A.9.9,0,0,1,8,11.25a.93.93,0,0,1-.27-.68V10a.63.63,0,0,0-.63-.63H6.52a.92.92,0,0,1-1-.92.93.93,0,0,1,.27-.68l0,0a1.12,1.12,0,0,1,.65-.23h.55a.63.63,0,0,0,.63-.63V6.34A1,1,0,0,1,8,5.65a.93.93,0,0,1,.68-.27,1,1,0,0,1,.69.27l0,0a1.12,1.12,0,0,1,.23.65v.55a.63.63,0,0,0,.63.63h.55a.93.93,0,0,1,.68.27.9.9,0,0,1,.28.68.94.94,0,0,1-1,1h-.55a.63.63,0,0,0-.63.63v.51a.94.94,0,0,1-1,1ZM6.52,7.77A.83.83,0,0,0,6,7.94L6,8a.69.69,0,0,0,0,1,.71.71,0,0,0,.51.2h.55A.88.88,0,0,1,8,10v.55a.67.67,0,0,0,.2.51.69.69,0,0,0,.5.2.68.68,0,0,0,.71-.71v-.51a.87.87,0,0,1,.88-.88h.55A.71.71,0,0,0,11.3,9h0a.71.71,0,0,0,.2-.51.69.69,0,0,0-.2-.5.67.67,0,0,0-.51-.2h-.55a.88.88,0,0,1-.88-.88V6.34a.83.83,0,0,0-.17-.48l0,0a.67.67,0,0,0-.51-.2.65.65,0,0,0-.5.2.67.67,0,0,0-.2.51v.55a.89.89,0,0,1-.88.88Z"/></g></g></g><g id="_Group_8" data-name="&lt;Group&gt;"><g id="_Group_9" data-name="&lt;Group&gt;"><g id="_Group_10" data-name="&lt;Group&gt;"><path class="cls-1" d="M22.91,4.28a1.39,1.39,0,1,1-1.39,1.38A1.38,1.38,0,0,1,22.91,4.28Z"/><path class="cls-1" d="M22.91,7.17a1.51,1.51,0,1,1,1.51-1.51A1.5,1.5,0,0,1,22.91,7.17Zm0-2.77a1.26,1.26,0,1,0,1.26,1.26A1.26,1.26,0,0,0,22.91,4.4Z"/></g></g></g><g id="_Group_11" data-name="&lt;Group&gt;"><g id="_Group_12" data-name="&lt;Group&gt;"><g id="_Group_13" data-name="&lt;Group&gt;"><path class="cls-1" d="M22.91,9.9a1.39,1.39,0,1,1-1.39,1.38A1.38,1.38,0,0,1,22.91,9.9Z"/><path class="cls-1" d="M22.91,12.79a1.51,1.51,0,1,1,1.51-1.51A1.5,1.5,0,0,1,22.91,12.79Zm0-2.77a1.26,1.26,0,1,0,1.26,1.26A1.26,1.26,0,0,0,22.91,10Z"/></g></g></g><g id="_Group_14" data-name="&lt;Group&gt;"><g id="_Group_15" data-name="&lt;Group&gt;"><g id="_Group_16" data-name="&lt;Group&gt;"><path class="cls-1" d="M20.1,7.09a1.39,1.39,0,1,1-1.39,1.38A1.38,1.38,0,0,1,20.1,7.09Z"/><path class="cls-1" d="M20.1,10a1.51,1.51,0,1,1,1.51-1.51A1.51,1.51,0,0,1,20.1,10Zm0-2.77a1.26,1.26,0,1,0,1.26,1.26A1.27,1.27,0,0,0,20.1,7.21Z"/></g></g></g><g id="_Group_17" data-name="&lt;Group&gt;"><g id="_Group_18" data-name="&lt;Group&gt;"><g id="_Group_19" data-name="&lt;Group&gt;"><path class="cls-1" d="M25.72,7.09a1.39,1.39,0,1,1-1.39,1.38A1.38,1.38,0,0,1,25.72,7.09Z"/><path class="cls-1" d="M25.72,10a1.51,1.51,0,1,1,1.51-1.51A1.5,1.5,0,0,1,25.72,10Zm0-2.77A1.26,1.26,0,1,0,27,8.47,1.26,1.26,0,0,0,25.72,7.21Z"/></g></g></g></g></g></g>
        </svg>

        <svg xml:space="preserve" x="0px" y="0px" version="1.1" xmlns="http://www.w3.org/2000/svg" xmlns:xlink="http://www.w3.org/1999/xlink" viewBox="0 0 23.98 22.06" id='heart'>
            <g id="Layer_2" data-name="Layer 2"><g id="katman_1" data-name="katman 1"><path id="_Compound_Path_" data-name="&lt;Compound Path&gt;" class="cls-1" d="M11.92,3.9A6.27,6.27,0,0,1,17.67,0c3.46,0,5.95,3,6.27,6.5A6.45,6.45,0,0,1,23.74,9a10.88,10.88,0,0,1-3.31,5.52l-8.51,7.59L3.55,14.47A10.88,10.88,0,0,1,.24,9,6.45,6.45,0,0,1,0,6.5C.35,3,2.85,0,6.31,0a6.08,6.08,0,0,1,5.61,3.9Z"/></g></g>
        </svg>

        <svg xml:space="preserve" x="0px" y="0px" version="1.1" xmlns="http://www.w3.org/2000/svg" xmlns:xlink="http://www.w3.org/1999/xlink" viewBox="0 0 21.26 22.55" id='share'>
            <g id="Layer_2" data-name="Layer 2"><g id="katman_1" data-name="katman 1"><g id="_Group_" data-name="&lt;Group&gt;"><path id="_Compound_Path_" data-name="&lt;Compound Path&gt;" class="cls-1" d="M17.22,14.49A4,4,0,0,0,14,16.06L7.83,12.6a4,4,0,0,0,.23-1.33,3.91,3.91,0,0,0-.23-1.33L14,6.48A4,4,0,1,0,13.19,4a4,4,0,0,0,.23,1.34L7.23,8.82a4,4,0,1,0,0,4.89l6.19,3.47a4,4,0,0,0-.23,1.34,4,4,0,1,0,4-4Zm0-13.22A2.77,2.77,0,1,1,14.45,4a2.77,2.77,0,0,1,2.77-2.77ZM4,14A2.77,2.77,0,1,1,6.8,11.27,2.77,2.77,0,0,1,4,14Zm13.18,7.24A2.77,2.77,0,1,1,20,18.51a2.78,2.78,0,0,1-2.77,2.77Z"/></g></g></g>
        </svg>

        <svg xml:space="preserve" x="0px" y="0px" version="1.1" xmlns="http://www.w3.org/2000/svg" xmlns:xlink="http://www.w3.org/1999/xlink" viewBox="0 0 131.16 131.16" id="play-btn-white">
            <g id="Layer_2" data-name="Layer 2">
                <g id="Layer_1-2" data-name="Layer 1">
                    <path class="cls-1" d="M59.81,130.78a65.45,65.45,0,1,1,71-59.43A65.53,65.53,0,0,1,59.81,130.78ZM70.9,5.42A60.39,60.39,0,1,0,125.74,70.9,60.45,60.45,0,0,0,70.9,5.42Z"/>
                    <polygon class="cls-2" points="42.2 74.82 32 77.28 31.99 77.39 30.44 94.91 94.64 77.12 72.55 67.15 42.2 74.82"/>
                    <polygon class="cls-2" points="97.19 76.3 98.58 60.57 98.59 60.46 83.38 53.17 81.94 69.42 97.19 76.3"/>
                    <polygon class="cls-2" points="36.14 30.54 34.59 48.05 75.34 66.44 75.85 66.67 80.22 68.64 81.66 52.35 36.14 30.54"/>
                </g>
            </g>
        </svg>
        
    </defs>
</svg>