<svg xmlns="http://www.w3.org/2000/svg" viewBox="0 0 139.35 135.15"><defs><style>.cls-1{opacity:0.2;}.cls-2{fill:#46a29f;}</style></defs><title>Varlık 2</title><g id="katman_2" data-name="katman 2"><g id="Layer_1" data-name="Layer 1"><g class="cls-1"><path class="cls-2" d="M0,0,3.21,2.74,18.73,16c12.89,10.92,30.2,25.4,47.76,39.8s35.35,28.73,49,39.62,23.1,18.38,23.87,19.25Q68.78,69,0,19.92Z"/><path class="cls-2" d="M0,24.79,14.59,37.15C25,45.9,38.93,57.52,53,69.11s28.39,23.16,39.33,32S110.88,116,111.5,116.64Q55.16,79.74,0,40.63Z"/><path class="cls-2" d="M0,46.41l11.24,9.47c8.37,7,19.59,16.35,30.93,25.68,22.67,18.68,45.9,37.24,46.9,38.34Q44.16,90.14,0,59Z"/><path class="cls-2" d="M0,66.5c5.61,4.7,19.37,16.22,33.42,27.74,18.21,15,36.84,30,37.64,30.86Q35.28,101.24,0,76.46Z"/><path class="cls-2" d="M0,83.63c4.81,4,15.49,12.9,26.35,21.82,14.63,12,29.56,24.09,30.2,24.82Q28.13,111.18,0,91.53Z"/><path class="cls-2" d="M0,98.19c4.08,3.38,12.3,10.19,20.65,17,11.75,9.66,23.71,19.35,24.22,19.93Q22.34,120,0,104.4Z"/></g></g></g></svg>