<svg xmlns="http://www.w3.org/2000/svg" viewBox="0 0 197.9 272.75"><defs><style>.cls-1,.cls-2{fill:#f05a24;}.cls-2{font-size:40.66px;font-family:TitilliumWeb-Bold, Titillium Web;}.cls-3{font-weight:700;}.cls-4{font-family:TitilliumWeb-ExtraLight, Titillium Web;}</style></defs><title>login-logo</title><g id="Layer_2" data-name="Layer 2"><g id="Layer_1-2" data-name="Layer 1"><path id="_Path_" data-name="&lt;Path&gt;" class="cls-1" d="M99,0A99,99,0,0,0,0,99c0,.39,0,.77,0,1.16a40.48,40.48,0,0,0,13.54,9.34c23.82,10.49,53.69,10.74,78.9,6.09,12-2.2,24.21-5.36,34.69-11.73A44.16,44.16,0,0,0,135,97.54c-26.28-9.37-56.3-7.21-83.65-7.15-18.4,0-18.37-28.51,0-28.55,36.58-.08,74.46-1.5,108.05,15.27,4.55,2.27,6.88,7.51,7.07,12.33,1.44,36.25-44.31,50.36-72.66,54.64-27.33,4.13-59,4.24-85.77-6A99,99,0,1,0,99,0Z"/><text class="cls-2" transform="translate(5.74 260.11)"><tspan class="cls-3">game</tspan><tspan class="cls-4" x="97.35" y="0">globe</tspan></text></g></g></svg>