<svg xmlns="http://www.w3.org/2000/svg" viewBox="0 0 25.74 18.72"><defs><style>.cls-1{fill:#fff;}</style></defs><title>Asset 23</title><g id="Layer_2" data-name="Layer 2"><g id="katman_1" data-name="katman 1"><path class="cls-1" d="M3.51,7A3.42,3.42,0,0,0,6,6,3.42,3.42,0,0,0,7,3.51,3.4,3.4,0,0,0,6,1,3.42,3.42,0,0,0,3.51,0,3.4,3.4,0,0,0,1,1,3.4,3.4,0,0,0,0,3.51,3.42,3.42,0,0,0,1,6,3.4,3.4,0,0,0,3.51,7Z"/><polygon class="cls-1" points="8.77 12.28 5.85 9.36 0 15.21 0 18.72 25.74 18.72 25.74 10.53 18.13 2.92 8.77 12.28"/></g></g></svg>