<svg xmlns="http://www.w3.org/2000/svg" viewBox="0 0 13.46 17.28"><defs><style>.cls-1{fill:#f05a24;}</style></defs><title>Asset 6</title><g id="Layer_2" data-name="Layer 2"><g id="katman_1" data-name="katman 1"><path class="cls-1" d="M5.83,6.33c0,.32,0,.61,0,.9,0,.6.2.76.74.81a5.54,5.54,0,0,0,.91,0,.63.63,0,0,0,.59-.68c0-.3,0-.6,0-.89,0,0,0,0,0-.07.35.07.72.12,1.07.21a6.47,6.47,0,0,1,2.4,1.06,4.67,4.67,0,0,1,1.84,2.5A1.57,1.57,0,0,1,13,11.63a1.06,1.06,0,0,1-.92.51.92.92,0,0,1-.44-.17c-.26-.19-.48-.43-.75-.61a1.14,1.14,0,0,0-1.49,0,4.14,4.14,0,0,0-.65.54c-.47.41-.79.32-1.28.08L6.4,11.46a.29.29,0,0,0-.35.07c-.2.2-.39.41-.6.6a.77.77,0,0,1-1,0c-.26-.19-.5-.41-.76-.59a.41.41,0,0,0-.61,0,1.78,1.78,0,0,1-1.25.49,2.08,2.08,0,0,1-1.49-.78l-.18-.24A1.19,1.19,0,0,1,.09,10a3.79,3.79,0,0,1,1-1.72,6.18,6.18,0,0,1,2.75-1.6A7.89,7.89,0,0,1,5.83,6.33Z"/><path class="cls-1" d="M7.88,5.68V7.13c0,.48-.18.65-.65.66H6.54A.52.52,0,0,1,6,7.26C6,6.2,6,5.14,6,4.08a.91.91,0,0,1,1.1-.89.93.93,0,0,1,.77,1Z"/><path class="cls-1" d="M10.47,11.41c-.06.39-.11.78-.18,1.16-.11.71-.23,1.42-.35,2.13S9.7,16,9.62,16.58c0,.29-.18.37-.43.4s-.5.12-.79.19c0-.34,0-.66.06-1,0-.6.11-1.19.15-1.78s.1-1.35.14-2c0-.22.18-.33.31-.46A1.52,1.52,0,0,1,10.47,11.41Z"/><path class="cls-1" d="M4.92,12.68a1.23,1.23,0,0,0,.79-.47,2,2,0,0,1,.38-.39.49.49,0,0,1,.36-.06s.11.16.11.26v5.26l-1.28-.09Z"/><path class="cls-1" d="M6.82,17.28V12c.55.17,1,.75,1.67.5,0,.33,0,.65-.07,1l-.15,1.85c0,.59-.11,1.18-.16,1.78,0,.11,0,.16-.16.17Z"/><path class="cls-1" d="M5,17.17l-1.1-.32a.18.18,0,0,1-.12-.12c-.11-.65-.2-1.31-.31-2S3.27,13.56,3.17,13c0-.3-.11-.61-.14-.92,0-.07.12-.19.2-.21.29-.1.51.08.72.26s.42.32.62.49a.23.23,0,0,1,.07.14c.06.67.11,1.35.17,2s.11,1.14.16,1.71C5,16.68,5,16.9,5,17.17Z"/><path class="cls-1" d="M10.81,11.5c.36.31.74.62,1.09.95a.37.37,0,0,1,0,.28c-.16.6-.31,1.2-.51,1.79a11.42,11.42,0,0,1-.6,1.39,1.78,1.78,0,0,1-1,.83l.86-5.23Z"/><path class="cls-1" d="M3.52,16.7a1.85,1.85,0,0,1-1-1c-.27-.61-.49-1.23-.71-1.85-.15-.46-.25-.94-.4-1.46a1.58,1.58,0,0,0,1.39-.18Z"/><path class="cls-1" d="M6.83,1A2.34,2.34,0,0,1,6.52,2,.66.66,0,0,0,6.71,3c-.19-.08-.39-.14-.57-.23A.78.78,0,0,1,6,1.6c.1-.17.21-.34.32-.49A1.65,1.65,0,0,0,6.56,0a1.82,1.82,0,0,1,1,.85A3.38,3.38,0,0,1,8,1.68a.88.88,0,0,1-.52,1.15l-.13,0a.81.81,0,0,0,.15-1A1.64,1.64,0,0,0,6.83,1Z"/></g></g></svg>