<svg xmlns="http://www.w3.org/2000/svg" viewBox="0 0 16.82 17.19"><defs><style>.cls-1{opacity:0.6;}.cls-2{fill:#b2b2b2;}</style></defs><title>Asset 24</title><g id="Layer_2" data-name="Layer 2"><g id="katman_1" data-name="katman 1"><g class="cls-1"><path class="cls-2" d="M6.53,5.07V.91A1.47,1.47,0,0,0,6.38.14a2.31,2.31,0,0,0-3.15,2,9,9,0,0,0-.16,1.65,2.18,2.18,0,0,1,.43,0,1.29,1.29,0,0,1,1,.46,2.16,2.16,0,0,1,.33,1.65h.73a1,1,0,0,0,1-.74Z"/><path class="cls-2" d="M15.2,11h-.46a1.54,1.54,0,0,1-1.68-1.34V8.94a1.89,1.89,0,0,1-1.12.35h-.47A1.54,1.54,0,0,1,9.79,8V7.64A1.85,1.85,0,0,1,8.67,8H8.21A1.56,1.56,0,0,1,6.53,6.67a1.45,1.45,0,0,1-1,.36H4.77c-.11.47,0,1.75-.58,2.22C3.86,9.57,3.43,9,3.43,9A4.18,4.18,0,0,0,4.3,6.35c.24-1.28-.6-2-1.08-2a1.5,1.5,0,0,0-.45.09,8.19,8.19,0,0,0-1.31.82A8.09,8.09,0,0,0,.38,6.41l0,0a2.9,2.9,0,0,0,.21,3,56.62,56.62,0,0,0,4.22,5.94c1.28,1.1.54,1.74.54,1.74l9.61.09.48-1.65A14.3,14.3,0,0,0,16.82,10a1.66,1.66,0,0,1-1.62,1Z"/><path class="cls-2" d="M14.74,9.74h.46c.61,0,1.12-.36,1.12-.79v-5c0-.43-.51-.79-1.12-.79h-.46c-.61,0-1.13.36-1.13.79V9c0,.43.52.79,1.13.79Z"/><path class="cls-2" d="M8.21,6.71h.46c.62,0,1.12-.36,1.12-.79v-5c0-.43-.5-.79-1.12-.79H8.21C7.6.12,7.08.48,7.08.91v5c0,.43.52.79,1.13.79Z"/><path class="cls-2" d="M11.47,8h.47c.6,0,1.12-.36,1.12-.79v-5c0-.43-.52-.79-1.12-.79h-.47c-.61,0-1.12.36-1.12.79v5c0,.43.51.79,1.12.79Z"/></g></g></g></svg>