<svg xmlns="http://www.w3.org/2000/svg" viewBox="0 0 21.32 21.32"><defs><style>.cls-1{fill:#fff;}</style></defs><title>Asset 17</title><g id="Layer_2" data-name="Layer 2"><g id="katman_1" data-name="katman 1"><path class="cls-1" d="M21.3,15.94a.37.37,0,0,0-.29-.25L18.2,15.3l-1.26-2.45a.37.37,0,0,0-.64,0L15,15.3l-2.81.39a.37.37,0,0,0-.29.25.36.36,0,0,0,.1.37l2,1.91-.47,2.68a.35.35,0,0,0,.14.35.33.33,0,0,0,.37,0L16.62,20l2.52,1.27a.29.29,0,0,0,.16,0,.36.36,0,0,0,.22-.07.37.37,0,0,0,.14-.35l-.48-2.68,2-1.91A.36.36,0,0,0,21.3,15.94Zm-2.76,1.88a.38.38,0,0,0-.11.33l.39,2.16-2-1a.34.34,0,0,0-.32,0l-2,1,.39-2.16a.38.38,0,0,0-.11-.33L13.08,16.3,15.33,16a.35.35,0,0,0,.27-.2l1-2,1,2a.35.35,0,0,0,.27.2l2.25.31Z"/><path class="cls-1" d="M13,11.56h3.25v-4H2.53V18.06H9.75V14.81H13Zm0-3.25h2.53v2.53H13Zm-3.26,0h2.53v2.53H9.75Zm-3.25,0H9v2.53H6.5ZM9,14.09H6.5V11.56H9ZM3.25,8.31H5.78v2.53H3.25Zm0,3.25H5.78v2.53H3.25Zm2.53,5.78H3.25V14.81H5.78Zm3.25,0H6.5V14.81H9Zm3.25-3.25H9.75V11.56h2.53Z"/><path class="cls-1" d="M9.39,19.87H.72V5.78H18.06v6.14a.37.37,0,0,0,.37.36.36.36,0,0,0,.36-.36V1.81a.36.36,0,0,0-.36-.36H16.62V.36A.36.36,0,0,0,16.26,0H13.73a.36.36,0,0,0-.36.36V1.45H5.42V.36A.36.36,0,0,0,5.06,0H2.53a.36.36,0,0,0-.36.36V1.45H.36A.36.36,0,0,0,0,1.81V20.23a.36.36,0,0,0,.36.36h9a.36.36,0,0,0,0-.72ZM14.09.72H15.9V2.89H14.09V.72ZM2.89.72H4.7V2.89H2.89V.72ZM.72,2.17H2.17V3.25a.36.36,0,0,0,.36.36H5.06a.36.36,0,0,0,.36-.36V2.17h8V3.25a.36.36,0,0,0,.36.36h2.53a.36.36,0,0,0,.36-.36V2.17h1.44V5.06H.72Z"/></g></g></svg>