<svg xmlns="http://www.w3.org/2000/svg" viewBox="0 0 35.08 44.93"><defs><style>.cls-1{fill:#fff;stroke:#fff;stroke-miterlimit:10;stroke-width:0.25px;}</style></defs><title>Asset 9</title><g id="Layer_2" data-name="Layer 2"><g id="katman_1" data-name="katman 1"><g id="_Group_" data-name="&lt;Group&gt;"><path id="_Compound_Path_" data-name="&lt;Compound Path&gt;" class="cls-1" d="M16.07,44.8c-1-.37-2-.7-2.89-1.13-4.11-1.91-7.38-4.7-9.1-9A1.45,1.45,0,0,0,3.56,34,7.38,7.38,0,0,1,.15,27.8,14.29,14.29,0,0,1,.16,26c.13-1.77.52-3.43,2.27-4.45a6.49,6.49,0,0,1,.2-5.69,4.45,4.45,0,0,0-1.58-5.43c1.16-.34,1.79-.15,5.08,1.53C7,8.91,9,6.17,7.74,2.68c1.58.9,2.67,1.94,2.8,3.72a3,3,0,0,0,1.23,2.41,5.28,5.28,0,0,0,.6-3A6.26,6.26,0,0,1,17.24.16c-1,2.48-1.75,4.94.14,7.6C18.76,3.45,21.25.67,25.75.17,24.22,1.61,23.62,3.54,23,5.43a1.65,1.65,0,0,0-.09.43c0,.65-.11,1.46.59,1.68A1.83,1.83,0,0,0,25,7.08a17.49,17.49,0,0,0,1.71-2.37,3.57,3.57,0,0,1,.67,2.72c-.07.61-.27,1.2-.37,1.8s-.24,1.18.41,1.34c.26.06.79-.43,1-.78a17.11,17.11,0,0,0,1.66-6.32,1,1,0,0,1,.18-.57c.15.31.32.61.44.93,1,2.61.62,5.24.08,7.87-.15.77-.31,1.55-.41,2.33-.07.54,0,1.09.67,1.26a1.15,1.15,0,0,0,1.47-.62A5.14,5.14,0,0,0,32.71,11c0-.18-.08-.37-.16-.7a7.82,7.82,0,0,1,2.26,7.41,22.11,22.11,0,0,1-1.13,3.86,1.18,1.18,0,0,0,.11,1.25c2,2.94,1.26,8.48-1.56,10.61a7.09,7.09,0,0,0-2,2.71A16.64,16.64,0,0,1,22,43.59c-1,.46-2.08.81-3.13,1.21Zm8.64-25c-1.18-1-2.68-1.87-3.43-3.15s-.78-3-1.13-4.58c-1.81,2.36-4.48,4.22-3.7,8-2-1.79-2.21-3.94-2.33-6.12-1.94,1.76-2.89,3.7-1.9,6.36-2.09-.72-2.87-2.19-3.3-4.07-1.88,2.48-3.47,4.83-2.35,8,.56,1.62,0,3.09-1,4.61a7.82,7.82,0,0,0-1.49-4.32,6.86,6.86,0,0,0,.17,5.06,2.83,2.83,0,0,0,1.66,1.44,3,3,0,0,1,1.19,1.26,8.81,8.81,0,0,1,.47,1.31c1.8,4,5.09,6.28,9.18,7.51a2.56,2.56,0,0,0,1.37.06c4.65-1.37,8.29-3.9,9.75-8.8a2,2,0,0,1,1.54-1.49,1.79,1.79,0,0,0,.78-.35c1.06-.94,1.49-3.76.65-5.33L29.49,28c-1.46-1-1.66-2.53-1.38-4.22A13.8,13.8,0,0,0,28,18.91a7.06,7.06,0,0,0-3.33-4.6Z"/><path id="_Path_" data-name="&lt;Path&gt;" class="cls-1" d="M8.84,25.88l6.71,1.55c-.39,1.24-1.9,2-3.56,1.79A3.54,3.54,0,0,1,8.84,25.88Z"/><path id="_Path_2" data-name="&lt;Path&gt;" class="cls-1" d="M19.34,27.44l6.71-1.54a3.25,3.25,0,0,1-2.48,3.2A3.55,3.55,0,0,1,19.34,27.44Z"/></g></g></g></svg>