<svg xmlns="http://www.w3.org/2000/svg" viewBox="0 0 25.78 21.5"><defs><style>.cls-1{fill:#fff;}</style></defs><title>Asset 18</title><g id="Layer_2" data-name="Layer 2"><g id="katman_1" data-name="katman 1"><g id="_Group_" data-name="&lt;Group&gt;"><g id="_Group_2" data-name="&lt;Group&gt;"><path id="_Compound_Path_" data-name="&lt;Compound Path&gt;" class="cls-1" d="M7.68,21.5c-.47-.18-.94-.34-1.39-.55A8.07,8.07,0,0,1,1.9,16.6a.69.69,0,0,0-.25-.31,3.57,3.57,0,0,1-1.64-3,6.59,6.59,0,0,1,0-.89,2.4,2.4,0,0,1,1.09-2.14,3.16,3.16,0,0,1,.1-2.75A2.13,2.13,0,0,0,.45,4.92c.56-.16.86-.07,2.44.74.4-1.45,1.38-2.77.78-4.45A2.22,2.22,0,0,1,5,3a1.47,1.47,0,0,0,.59,1.17A2.65,2.65,0,0,0,5.9,2.73,3,3,0,0,1,8.24,0c-.48,1.19-.84,2.38.07,3.66C9,1.58,10.17.24,12.34,0A5.84,5.84,0,0,0,11,2.54a.65.65,0,0,0-.05.2c0,.32,0,.71.29.81A.87.87,0,0,0,12,3.33a8.71,8.71,0,0,0,.82-1.14,1.74,1.74,0,0,1,.33,1.31c0,.29-.13.58-.19.87s-.11.56.21.64c.12,0,.38-.21.46-.38a8,8,0,0,0,.8-3,.48.48,0,0,1,.09-.27,4.51,4.51,0,0,1,.22.44,6.7,6.7,0,0,1,0,3.79c-.07.38-.15.75-.2,1.13s0,.52.33.6A.56.56,0,0,0,15.59,7a2.54,2.54,0,0,0,.1-1.78l-.08-.33A3.74,3.74,0,0,1,16.7,8.45a11.15,11.15,0,0,1-.54,1.85.59.59,0,0,0,.05.61,4.21,4.21,0,0,1-.75,5.1,3.37,3.37,0,0,0-1,1.31,8,8,0,0,1-4,3.59c-.49.22-1,.39-1.51.59Zm4.16-12a7.32,7.32,0,0,1-1.65-1.52,7.4,7.4,0,0,1-.54-2.2c-.88,1.13-2.16,2-1.79,3.84A3.76,3.76,0,0,1,6.74,6.63a2.6,2.6,0,0,0-.92,3.06,2.35,2.35,0,0,1-1.58-2c-.91,1.19-1.67,2.33-1.14,3.88a2.44,2.44,0,0,1-.49,2.21,3.75,3.75,0,0,0-.72-2.07A3.32,3.32,0,0,0,2,14.18a1.37,1.37,0,0,0,.8.69c.24.09.42.38.58.61a4.26,4.26,0,0,1,.22.63A6.6,6.6,0,0,0,8,19.73a1.24,1.24,0,0,0,.66,0,6.27,6.27,0,0,0,4.7-4.24.94.94,0,0,1,.74-.72.84.84,0,0,0,.37-.17,2.55,2.55,0,0,0,.32-2.57l-.64,1.35a1.84,1.84,0,0,1-.66-2,6.63,6.63,0,0,0,0-2.35,3.41,3.41,0,0,0-1.6-2.22Z"/><path id="_Path_" data-name="&lt;Path&gt;" class="cls-1" d="M4.2,12.38l3.23.75A1.54,1.54,0,0,1,5.71,14,1.7,1.7,0,0,1,4.2,12.38Z"/><path id="_Path_2" data-name="&lt;Path&gt;" class="cls-1" d="M9.25,13.14l3.23-.75a1.57,1.57,0,0,1-1.19,1.55A1.73,1.73,0,0,1,9.25,13.14Z"/></g><g id="_Group_3" data-name="&lt;Group&gt;"><path id="_Compound_Path_2" data-name="&lt;Compound Path&gt;" class="cls-1" d="M21.31,14.83a3.91,3.91,0,0,1-1.92-1.13,13.76,13.76,0,0,1-.9-1.47,1.14,1.14,0,0,0-.32-.42,1.66,1.66,0,0,1-.64-2.5,1.13,1.13,0,0,0,.09-.45,11.67,11.67,0,0,1,.15-1.69,3.56,3.56,0,0,1,4-2.65,3.54,3.54,0,0,1,3.53,3.87,2.47,2.47,0,0,0,.25,1.24,1.59,1.59,0,0,1-.69,2.15,1,1,0,0,0-.44.59,3.68,3.68,0,0,1-2.56,2.36l-.24.1ZM19.79,7.18a3,3,0,0,1-.54.9,1.09,1.09,0,0,0-.43.85c0,.36-.06.7-.52.78-.09,0-.17.16-.21.26a.85.85,0,0,0,.59,1.17.73.73,0,0,1,.53.65A2.86,2.86,0,0,0,21.28,14a.65.65,0,0,0,.39,0,2.76,2.76,0,0,0,2-1.91,1.18,1.18,0,0,1,.69-.92c.78-.35.75-1.07,0-1.52a.72.72,0,0,1-.23-.42c-.13-.43-.22-.88-.35-1.3s-.29-.4-.6-.22a9.26,9.26,0,0,1-1.1.53A1.61,1.61,0,0,1,20,7.52C20,7.42,19.88,7.3,19.79,7.18Z"/><path id="_Path_3" data-name="&lt;Path&gt;" class="cls-1" d="M20,11a.68.68,0,0,1-.64-.7A.65.65,0,0,1,20,9.65a.63.63,0,0,1,.63.68A.65.65,0,0,1,20,11Z"/><path id="_Path_4" data-name="&lt;Path&gt;" class="cls-1" d="M23.66,10.28A.66.66,0,0,1,23,11a.64.64,0,0,1-.64-.64A.62.62,0,0,1,23,9.65.66.66,0,0,1,23.66,10.28Z"/></g><path id="_Path_5" data-name="&lt;Path&gt;" class="cls-1" d="M6.09,13.56a.51.51,0,0,1-.52.53A.53.53,0,0,1,5,13.57.55.55,0,0,1,5.56,13,.53.53,0,0,1,6.09,13.56Z"/><path id="_Path_6" data-name="&lt;Path&gt;" class="cls-1" d="M11.61,13.56a.53.53,0,0,1-1.06,0,.53.53,0,1,1,1.06,0Z"/><path id="_Path_7" data-name="&lt;Path&gt;" class="cls-1" d="M20.3,10.38a.31.31,0,0,1-.31.32.32.32,0,1,1,.31-.32Z"/><path id="_Path_8" data-name="&lt;Path&gt;" class="cls-1" d="M23.36,10.28a.32.32,0,0,1-.32.32.32.32,0,0,1-.32-.32A.33.33,0,0,1,23,10,.32.32,0,0,1,23.36,10.28Z"/></g></g></g></svg>