<svg xmlns="http://www.w3.org/2000/svg" viewBox="0 0 25.59 16.9"><defs><style>.cls-1{fill:#fff;}</style></defs><title>Asset 31</title><g id="Layer_2" data-name="Layer 2"><g id="katman_1" data-name="katman 1"><g id="_Group_" data-name="&lt;Group&gt;"><g id="_Group_2" data-name="&lt;Group&gt;"><g id="_Group_3" data-name="&lt;Group&gt;"><g id="_Group_4" data-name="&lt;Group&gt;"><path class="cls-1" d="M25.45,11.64a23.45,23.45,0,0,0-.7-4.58,17.22,17.22,0,0,0-1.42-3.85C21.13-.67,18.73-.07,15.85.69a21.27,21.27,0,0,1-2.9.57h-.31A21.72,21.72,0,0,1,9.73.69C6.86,0,4.46-.67,2.25,3.25A16.4,16.4,0,0,0,.83,7.1a23.21,23.21,0,0,0-.69,4.57,8.62,8.62,0,0,0,.44,3.6A2.38,2.38,0,0,0,2.1,16.69a3.11,3.11,0,0,0,2-.22,14.87,14.87,0,0,0,4-2.87,7,7,0,0,1,4.64-1.42,7,7,0,0,1,4.64,1.42,15.06,15.06,0,0,0,4,2.87,3.32,3.32,0,0,0,2,.22A2.37,2.37,0,0,0,25,15.24,8.63,8.63,0,0,0,25.45,11.64ZM23.93,14.8a1.28,1.28,0,0,1-.75.79,2.24,2.24,0,0,1-1.3-.16,12.85,12.85,0,0,1-3.66-2.62A7.87,7.87,0,0,0,12.79,11a8.33,8.33,0,0,0-5.46,1.74,13.08,13.08,0,0,1-3.66,2.61,1.92,1.92,0,0,1-1.29.16,1.22,1.22,0,0,1-.76-.79,7.39,7.39,0,0,1-.31-3A21.45,21.45,0,0,1,2,7.35,15.52,15.52,0,0,1,3.29,3.78C5,.66,7.05,1.16,9.45,1.79a17.43,17.43,0,0,0,3.09.6H13a17.2,17.2,0,0,0,3.13-.6c2.4-.59,4.42-1.13,6.15,2a14.58,14.58,0,0,1,1.33,3.57,23.4,23.4,0,0,1,.66,4.35A7.28,7.28,0,0,1,23.93,14.8Z"/><path class="cls-1" d="M2.75,16.9a2.72,2.72,0,0,1-.69-.09A2.53,2.53,0,0,1,.47,15.32,8.67,8.67,0,0,1,0,11.67a24.47,24.47,0,0,1,.7-4.6A16.72,16.72,0,0,1,2.14,3.19C4.39-.79,6.86-.16,9.71.56L10,.63a17.22,17.22,0,0,0,2.63.5H13a17.33,17.33,0,0,0,2.62-.5l.26-.06c2.86-.76,5.34-1.41,7.61,2.58A17.48,17.48,0,0,1,24.88,7a24.64,24.64,0,0,1,.69,4.61h0a8.37,8.37,0,0,1-.45,3.65,2.49,2.49,0,0,1-1.59,1.52,3.38,3.38,0,0,1-2.1-.22,14.79,14.79,0,0,1-4.08-2.9,6.85,6.85,0,0,0-4.56-1.39,6.82,6.82,0,0,0-4.55,1.39,14.65,14.65,0,0,1-4.08,2.89A3.51,3.51,0,0,1,2.75,16.9ZM6.62.27c-1.55,0-2.92.68-4.26,3A16.21,16.21,0,0,0,1,7.13a23.93,23.93,0,0,0-.69,4.55A8.33,8.33,0,0,0,.7,15.22a2.26,2.26,0,0,0,1.43,1.35,3,3,0,0,0,1.94-.21,14.84,14.84,0,0,0,4-2.85,7,7,0,0,1,4.72-1.46,7,7,0,0,1,4.73,1.46,14.4,14.4,0,0,0,4,2.84,3.1,3.1,0,0,0,1.94.22,2.24,2.24,0,0,0,1.43-1.38,8.36,8.36,0,0,0,.43-3.54,23.16,23.16,0,0,0-.69-4.55,17.07,17.07,0,0,0-1.41-3.83C21.05-.55,18.66.08,15.89.81l-.27.06A17.15,17.15,0,0,1,13,1.38h-.32A17.41,17.41,0,0,1,10,.87L9.65.8A12.64,12.64,0,0,0,6.62.27ZM22.83,15.75a3.05,3.05,0,0,1-1-.2,13,13,0,0,1-3.7-2.65,7.71,7.71,0,0,0-5.35-1.77,8.08,8.08,0,0,0-5.37,1.71,12.78,12.78,0,0,1-3.7,2.64,2,2,0,0,1-1.38.16,1.36,1.36,0,0,1-.83-.86,7.56,7.56,0,0,1-.33-3.08,22.3,22.3,0,0,1,.67-4.38,14.61,14.61,0,0,1,1.34-3.6C5,.49,7.17,1.06,9.48,1.67a17.35,17.35,0,0,0,3.07.6H13a17.5,17.5,0,0,0,3.1-.6h.06c2.4-.6,4.46-1.12,6.23,2.06a14.74,14.74,0,0,1,1.34,3.6,23.87,23.87,0,0,1,.67,4.38,7.57,7.57,0,0,1-.36,3.15,1.35,1.35,0,0,1-.84.86A1.53,1.53,0,0,1,22.83,15.75Zm-10-4.87a8,8,0,0,1,5.52,1.84,12.57,12.57,0,0,0,3.62,2.59,2,2,0,0,0,1.21.15,1.09,1.09,0,0,0,.68-.71h0a7.22,7.22,0,0,0,.34-3,24.17,24.17,0,0,0-.66-4.33,14.24,14.24,0,0,0-1.32-3.54c-1.67-3-3.56-2.54-5.95-1.94l-.06,0a18.52,18.52,0,0,1-3.14.6h-.49a18.48,18.48,0,0,1-3.12-.6C7.1,1.31,5.11.78,3.4,3.84A15.32,15.32,0,0,0,2.09,7.38a21.79,21.79,0,0,0-.66,4.33,7.47,7.47,0,0,0,.31,3,1.13,1.13,0,0,0,.67.71,1.76,1.76,0,0,0,1.22-.15,12.68,12.68,0,0,0,3.62-2.6A8.41,8.41,0,0,1,12.79,10.88Z"/></g></g></g><g id="_Group_5" data-name="&lt;Group&gt;"><g id="_Group_6" data-name="&lt;Group&gt;"><g id="_Group_7" data-name="&lt;Group&gt;"><path class="cls-1" d="M9.89,5.49A1.88,1.88,0,0,0,8.75,5a1.78,1.78,0,0,0-.5-1.1l0,0a1.82,1.82,0,0,0-1.3-.53,1.89,1.89,0,0,0-1.29.53A1.94,1.94,0,0,0,5.09,5,1.82,1.82,0,0,0,4,5.46l0,0a1.77,1.77,0,0,0-.54,1.29,1.82,1.82,0,0,0,.54,1.29,1.71,1.71,0,0,0,1.16.54,1.73,1.73,0,0,0,.54,1.14,1.81,1.81,0,0,0,1.29.53,1.9,1.9,0,0,0,1.3-.53,2,2,0,0,0,.53-1.14,1.65,1.65,0,0,0,1.14-.54,1.75,1.75,0,0,0,.54-1.29A1.84,1.84,0,0,0,9.89,5.49ZM9.1,7.25a.61.61,0,0,1-.47.19H8.19a.6.6,0,0,0-.6.6v.41a.65.65,0,0,1-.67.67.67.67,0,0,1-.47-.19.65.65,0,0,1-.19-.48V8a.6.6,0,0,0-.6-.6H5.22a.61.61,0,0,1-.47-.19.6.6,0,0,1-.19-.44.61.61,0,0,1,.19-.47l0,0a.7.7,0,0,1,.44-.16h.44a.6.6,0,0,0,.6-.6V5.08a.65.65,0,0,1,.19-.48.67.67,0,0,1,.47-.19.69.69,0,0,1,.48.19l0,0a.82.82,0,0,1,.16.45v.44a.6.6,0,0,0,.6.6h.44a.65.65,0,0,1,.66.66A.61.61,0,0,1,9.1,7.25Z"/><path class="cls-1" d="M6.92,10.41a2,2,0,0,1-1.38-.57A1.75,1.75,0,0,1,5,8.73a1.84,1.84,0,0,1-1.14-.57,2,2,0,0,1-.58-1.38A1.89,1.89,0,0,1,3.84,5.4l0,0A2,2,0,0,1,5,4.84a1.94,1.94,0,0,1,.56-1.11,2,2,0,0,1,1.38-.58,1.93,1.93,0,0,1,1.39.58l0,0a2,2,0,0,1,.53,1.08,2.09,2.09,0,0,1,1.1.55h0a2,2,0,0,1,.57,1.38A1.92,1.92,0,0,1,10,8.16a1.81,1.81,0,0,1-1.11.57,2,2,0,0,1-.56,1.1A2,2,0,0,1,6.92,10.41Zm0-7a1.74,1.74,0,0,0-1.2.5A1.67,1.67,0,0,0,5.22,5v.11H5.1A1.7,1.7,0,0,0,4,5.55l0,0a1.68,1.68,0,0,0-.5,1.2A1.78,1.78,0,0,0,4,8a1.7,1.7,0,0,0,1.09.5h.11V8.6a1.58,1.58,0,0,0,.49,1.06,1.69,1.69,0,0,0,1.21.5,1.74,1.74,0,0,0,1.21-.5,1.77,1.77,0,0,0,.5-1.06V8.49h.11A1.56,1.56,0,0,0,9.8,8a1.68,1.68,0,0,0,.5-1.21,1.72,1.72,0,0,0-1.55-1.7H8.64V5a1.67,1.67,0,0,0-.47-1l0,0A1.7,1.7,0,0,0,6.92,3.4Zm0,5.84A.8.8,0,0,1,6.36,9a.77.77,0,0,1-.22-.57V8a.48.48,0,0,0-.48-.47H5.22a.77.77,0,0,1-.56-.23.75.75,0,0,1-.23-.53.77.77,0,0,1,.23-.56l0,0A.88.88,0,0,1,5.22,6h.44a.48.48,0,0,0,.48-.47V5.08a.8.8,0,0,1,1.35-.57l0,0a.86.86,0,0,1,.19.53v.44A.47.47,0,0,0,8.19,6h.44a.79.79,0,0,1,.56,1.35h0a.77.77,0,0,1-.56.23H8.19A.47.47,0,0,0,7.71,8v.41A.78.78,0,0,1,7.49,9,.81.81,0,0,1,6.92,9.24Zm-1.7-3a.63.63,0,0,0-.37.14l0,0a.5.5,0,0,0-.15.38.53.53,0,0,0,.54.51h.44A.73.73,0,0,1,6.39,8v.44a.53.53,0,0,0,.15.39A.52.52,0,0,0,6.92,9a.51.51,0,0,0,.54-.54V8a.73.73,0,0,1,.73-.72h.44A.52.52,0,0,0,9,7.17H9a.51.51,0,0,0,.16-.39A.48.48,0,0,0,9,6.4a.49.49,0,0,0-.38-.16H8.19a.73.73,0,0,1-.73-.72V5.08a.64.64,0,0,0-.13-.37l0,0a.53.53,0,0,0-.39-.15.52.52,0,0,0-.38.15.53.53,0,0,0-.15.39v.44a.73.73,0,0,1-.73.72Z"/></g></g></g><g id="_Group_8" data-name="&lt;Group&gt;"><g id="_Group_9" data-name="&lt;Group&gt;"><g id="_Group_10" data-name="&lt;Group&gt;"><path class="cls-1" d="M18.28,3.44a1.1,1.1,0,1,1-1.1,1.1A1.1,1.1,0,0,1,18.28,3.44Z"/><path class="cls-1" d="M18.29,5.77a1.23,1.23,0,1,1,1.22-1.23A1.23,1.23,0,0,1,18.29,5.77Zm0-2.21a1,1,0,1,0,1,1A1,1,0,0,0,18.29,3.56Z"/></g></g></g><g id="_Group_11" data-name="&lt;Group&gt;"><g id="_Group_12" data-name="&lt;Group&gt;"><g id="_Group_13" data-name="&lt;Group&gt;"><path class="cls-1" d="M18.28,7.92A1.11,1.11,0,1,1,17.18,9,1.1,1.1,0,0,1,18.28,7.92Z"/><path class="cls-1" d="M18.29,10.25A1.23,1.23,0,1,1,19.51,9,1.23,1.23,0,0,1,18.29,10.25Zm0-2.21a1,1,0,1,0,1,1A1,1,0,0,0,18.29,8Z"/></g></g></g><g id="_Group_14" data-name="&lt;Group&gt;"><g id="_Group_15" data-name="&lt;Group&gt;"><g id="_Group_16" data-name="&lt;Group&gt;"><path class="cls-1" d="M16,5.68a1.11,1.11,0,1,1-1.1,1.1A1.11,1.11,0,0,1,16,5.68Z"/><path class="cls-1" d="M16,8a1.23,1.23,0,1,1,1.23-1.23A1.24,1.24,0,0,1,16,8ZM16,5.8a1,1,0,1,0,1,1A1,1,0,0,0,16,5.8Z"/></g></g></g><g id="_Group_17" data-name="&lt;Group&gt;"><g id="_Group_18" data-name="&lt;Group&gt;"><g id="_Group_19" data-name="&lt;Group&gt;"><path class="cls-1" d="M20.53,5.68a1.11,1.11,0,0,1,0,2.21,1.11,1.11,0,1,1,0-2.21Z"/><path class="cls-1" d="M20.53,8a1.23,1.23,0,1,1,1.22-1.23A1.23,1.23,0,0,1,20.53,8Zm0-2.21a1,1,0,1,0,1,1A1,1,0,0,0,20.53,5.8Z"/></g></g></g></g></g></g></svg>