<svg xmlns="http://www.w3.org/2000/svg" viewBox="0 0 23.25 17.13"><defs><style>.cls-1{fill:#fff;}</style></defs><title>Asset 32</title><g id="Layer_2" data-name="Layer 2"><g id="katman_1" data-name="katman 1"><g id="_Group_" data-name="&lt;Group&gt;"><g id="_Group_2" data-name="&lt;Group&gt;"><g id="_Group_3" data-name="&lt;Group&gt;"><g id="_Group_4" data-name="&lt;Group&gt;"><path class="cls-1" d="M20.42,7.73a6.42,6.42,0,0,0-2.31-.4.34.34,0,1,0,0,.67,5.8,5.8,0,0,1,2,.33.37.37,0,0,0,.15,0,.33.33,0,0,0,.3-.18A.34.34,0,0,0,20.42,7.73Z"/><path class="cls-1" d="M20.27,8.49a.5.5,0,0,1-.21-.05,5.55,5.55,0,0,0-1.95-.31.47.47,0,0,1-.47-.46.46.46,0,0,1,.47-.46,6.67,6.67,0,0,1,2.36.4h0a.49.49,0,0,1,.24.27.53.53,0,0,1,0,.35A.46.46,0,0,1,20.27,8.49Zm-2.16-1a.21.21,0,0,0-.22.21.22.22,0,0,0,.22.21,6,6,0,0,1,2.06.34.22.22,0,0,0,.29-.1.22.22,0,0,0,0-.16.22.22,0,0,0-.11-.12h0A6.34,6.34,0,0,0,18.11,7.46Z"/></g></g></g><g id="_Group_5" data-name="&lt;Group&gt;"><g id="_Group_6" data-name="&lt;Group&gt;"><g id="_Group_7" data-name="&lt;Group&gt;"><path class="cls-1" d="M22.1,12.52l-1.39-.4A.14.14,0,0,1,20.6,12v-.46a2.78,2.78,0,0,0,.33-.27,2.49,2.49,0,0,0,.75-1.79V8.83l.14-.27a2.14,2.14,0,0,0,.22-1V5.87a.34.34,0,0,0-.33-.34H18.47a2.14,2.14,0,0,0-2.14,2.14v0a1.79,1.79,0,0,0,.18.79l.18.35v.55a2.62,2.62,0,0,0,1.08,2.12V12c0,.07,0,.11-.28.19l-.68.19-2-.72a.38.38,0,0,0-.09-.25l-.63-.66V9.63l.19-.17a4,4,0,0,0,1.25-2.87V5.7a3.88,3.88,0,0,0,.36-1.64V.46a.34.34,0,0,0-.34-.33h-5A3.22,3.22,0,0,0,7.33,3.34v.72A3.88,3.88,0,0,0,7.69,5.7v.76A4.1,4.1,0,0,0,9.13,9.6v1.14l-.63.66a.35.35,0,0,0-.09.26l-2.07.75a1.68,1.68,0,0,0-.42.22l-.32-.17a2.59,2.59,0,0,0,1.29-1,.39.39,0,0,0,0-.3A5.76,5.76,0,0,1,6.59,9c0-.24,0-.47,0-.67A2.93,2.93,0,0,0,3.7,5.53,2.92,2.92,0,0,0,.85,8.36c0,.2,0,.43,0,.67a6.23,6.23,0,0,1-.3,2.09.32.32,0,0,0,0,.3,2.59,2.59,0,0,0,1.29,1l-.9.46a1.4,1.4,0,0,0-.78,1.26v2.49a.34.34,0,1,0,.67,0V14.18a.74.74,0,0,1,.41-.66L2.34,13l.39.37a1.41,1.41,0,0,0,1.95,0L5.07,13l.37.18a1.81,1.81,0,0,0-.27.94v2.59a.34.34,0,1,0,.67,0V14.08a1.11,1.11,0,0,1,.73-1l2.18-.79.91,1.36a.7.7,0,0,0,.52.31h.07a.7.7,0,0,0,.49-.2l.55-.56v3.51a.34.34,0,1,0,.68,0V13.16l.55.56a.7.7,0,0,0,.49.2h.07a.66.66,0,0,0,.51-.31l.91-1.36,2.19.79a1.12,1.12,0,0,1,.73,1v2.59a.34.34,0,1,0,.67,0V14.08a1.77,1.77,0,0,0-.5-1.23l.09,0a1.47,1.47,0,0,0,.31-.11l.86.86v3.1a.34.34,0,1,0,.67,0v-3.1l.86-.85.14,0,1.39.4a.75.75,0,0,1,.54.72v2.78a.34.34,0,0,0,.34.34.34.34,0,0,0,.34-.34V13.89A1.45,1.45,0,0,0,22.1,12.52ZM2.29,11.93a2.37,2.37,0,0,1-1.08-.7,3.75,3.75,0,0,0,.19-.8,2.43,2.43,0,0,0,.89,1.09Zm1.93.91a.76.76,0,0,1-1,0l-.31-.3A.73.73,0,0,0,3,12.21v-.36a2.37,2.37,0,0,0,1.49,0v.36a.73.73,0,0,0,.08.33ZM3.7,11.29A1.83,1.83,0,0,1,1.88,9.47a.34.34,0,0,0-.34-.34H1.49V9.05c0-.23,0-.45,0-.64A2.48,2.48,0,0,1,2.2,6.84,2.08,2.08,0,0,1,3.7,6.2a2.1,2.1,0,0,1,1.51.64,2.53,2.53,0,0,1,.68,1.57c0,.19,0,.41,0,.64v.06A3,3,0,0,0,4.26,7.89,4.5,4.5,0,0,0,3,7.69a.34.34,0,0,0-.23.1l-.61.63a.34.34,0,0,0,0,.48.34.34,0,0,0,.48,0l.5-.52A2.73,2.73,0,0,1,5.51,9.75,1.82,1.82,0,0,1,3.7,11.29Zm1.42.64v-.4A2.47,2.47,0,0,0,6,10.43a3.75,3.75,0,0,0,.19.8A2.37,2.37,0,0,1,5.12,11.93ZM8.36,6.46V5.63a.4.4,0,0,0,0-.15A3.21,3.21,0,0,1,8,4.06V3.34A2.55,2.55,0,0,1,10.55.8h4.7V4.06a3.2,3.2,0,0,1-.32,1.42.42.42,0,0,0,0,.15v1a3.22,3.22,0,0,1-1,2.38,2.75,2.75,0,0,1-.26.22h0a3.18,3.18,0,0,1-2.19.65A3.33,3.33,0,0,1,8.36,6.46Zm1.9,6.78h0l-1-1.57.33-.36L11.1,12.4Zm1.37-1.3L9.8,10.69v-.62a4,4,0,0,0,1.57.45h.26a3.89,3.89,0,0,0,1.82-.45v.61Zm1.4,1.3h0l-.85-.84,1.59-1.09.34.36ZM19.19,13l-.77-.76a1.23,1.23,0,0,0,0-.2v-.14a2.48,2.48,0,0,0,.67.12h.08a2.34,2.34,0,0,0,.74-.12V12a1.36,1.36,0,0,0,0,.2Zm1.27-2.17a1.82,1.82,0,0,1-1.33.51,1.88,1.88,0,0,1-1.77-1.91V8.75a.37.37,0,0,0,0-.15l-.21-.42A1,1,0,0,1,17,7.69v0A1.47,1.47,0,0,1,18.47,6.2h2.9V7.6a1.52,1.52,0,0,1-.15.66l-.17.34a.26.26,0,0,0,0,.15v.72A1.84,1.84,0,0,1,20.46,10.78Z"/><path class="cls-1" d="M22.79,17.13a.45.45,0,0,1-.46-.46V13.89a.63.63,0,0,0-.45-.6l-1.39-.4-.09,0-.75.75v3.05a.47.47,0,0,1-.93,0V13.62L18,12.86l-.15.05a1.9,1.9,0,0,1,.4,1.17v2.59a.45.45,0,0,1-.46.46.46.46,0,0,1-.46-.46V14.08a1,1,0,0,0-.64-.92l-2.1-.76-.85,1.28a.8.8,0,0,1-.6.36H13a.84.84,0,0,1-.58-.24l-.34-.35v3.21a.46.46,0,0,1-.46.46.45.45,0,0,1-.46-.46V13.46l-.34.35a.83.83,0,0,1-1.27-.13L8.71,12.4l-2.1.76a1,1,0,0,0-.64.92v2.59a.47.47,0,0,1-.93,0V14.08a2,2,0,0,1,.22-.89l-.17-.08-.32.31a1.56,1.56,0,0,1-2.13,0l-.33-.31-1,.52a.61.61,0,0,0-.35.55v2.49a.45.45,0,0,1-.46.46A.46.46,0,0,1,0,16.67V14.18A1.56,1.56,0,0,1,.85,12.8l.68-.33a2.6,2.6,0,0,1-1.12-1,.45.45,0,0,1,0-.42A5.85,5.85,0,0,0,.69,9c0-.24,0-.46,0-.67a3.05,3.05,0,0,1,3-2.95,3.06,3.06,0,0,1,3,2.95c0,.18,0,.37,0,.57V9a5.85,5.85,0,0,0,.28,2,.51.51,0,0,1,0,.42,2.69,2.69,0,0,1-1.12,1h0a1.76,1.76,0,0,1,.39-.19l2-.72a.48.48,0,0,1,.12-.26l.6-.62v-1a4.22,4.22,0,0,1-1.44-3.2V5.73a4,4,0,0,1-.36-1.67V3.34A3.35,3.35,0,0,1,10.55,0h5a.46.46,0,0,1,.46.46v3.6a4,4,0,0,1-.36,1.67v.86a4,4,0,0,1-1.28,3,1.07,1.07,0,0,1-.16.14v1l.6.62a.48.48,0,0,1,.12.26l1.85.67.64-.19a.63.63,0,0,0,.2-.07v-.41a2.77,2.77,0,0,1-1.09-2.19V8.86l-.16-.32a1.93,1.93,0,0,1-.2-.85A2.28,2.28,0,0,1,18.46,5.4h3.25a.47.47,0,0,1,.46.47V7.6a2.21,2.21,0,0,1-.24,1l-.12.25v.61a2.59,2.59,0,0,1-.8,1.88,2.09,2.09,0,0,1-.28.24V12l1.4.41a1.55,1.55,0,0,1,1.12,1.49v2.78A.46.46,0,0,1,22.79,17.13Zm-2.44-4.57.08,0,.12,0,1.4.4a.88.88,0,0,1,.63.84v2.78a.21.21,0,1,0,.42,0V13.89a1.31,1.31,0,0,0-.94-1.25l-1.39-.39a.28.28,0,0,1-.19-.26v-.53l.05,0a2.42,2.42,0,0,0,.31-.25,2.36,2.36,0,0,0,.72-1.7v-.7l.14-.27a2,2,0,0,0,.21-.9V5.87a.22.22,0,0,0-.21-.22H18.46a2,2,0,0,0-2,2,1.64,1.64,0,0,0,.18.76l.18.4v.55a2.5,2.5,0,0,0,1,2l.05,0V12c0,.18-.11.23-.37.3l-.71.21-2.1-.76v-.1a.19.19,0,0,0-.05-.16L14,10.79V9.57l.05,0,.19-.16a3.84,3.84,0,0,0,1.2-2.78l0-.94a3.79,3.79,0,0,0,.34-1.59V.46a.21.21,0,0,0-.21-.21h-5A3.09,3.09,0,0,0,7.46,3.34v.72A3.79,3.79,0,0,0,7.8,5.65l0,0v.76A4,4,0,0,0,9.21,9.51l0,0v1.24l-.67.69a.22.22,0,0,0-.05.17v.09l-2.16.79a1.8,1.8,0,0,0-.39.2l-.06,0-.63-.31.25-.11a2.51,2.51,0,0,0,1.23-1,.21.21,0,0,0,0-.19A5.82,5.82,0,0,1,6.47,9v-.1c0-.2,0-.39,0-.56A2.81,2.81,0,0,0,3.7,5.65,2.81,2.81,0,0,0,1,8.37q0,.3,0,.66a5.82,5.82,0,0,1-.31,2.14.21.21,0,0,0,0,.19,2.43,2.43,0,0,0,1.23,1l.25.11L1,13a1.28,1.28,0,0,0-.71,1.15v2.49a.21.21,0,0,0,.21.21.21.21,0,0,0,.21-.21V14.18a.86.86,0,0,1,.48-.77l1.21-.61.45.44a1.32,1.32,0,0,0,1.78,0l.46-.44.57.29-.07.12a1.58,1.58,0,0,0-.26.87v2.59a.21.21,0,0,0,.21.21.21.21,0,0,0,.22-.21V14.08a1.23,1.23,0,0,1,.81-1.16L8.8,12.1l1,1.44a.52.52,0,0,0,.42.25h.06a.56.56,0,0,0,.4-.17l.77-.77v3.81a.21.21,0,0,0,.42,0V12.86l.77.77a.55.55,0,0,0,.46.16.54.54,0,0,0,.42-.25l1-1.44,2.28.82a1.24,1.24,0,0,1,.81,1.16v2.59a.21.21,0,0,0,.21.21.21.21,0,0,0,.21-.21V14.08a1.64,1.64,0,0,0-.46-1.15l-.14-.15.28-.08a1.25,1.25,0,0,0,.29-.1l.08,0,1,1v3.15a.21.21,0,0,0,.22.21.21.21,0,0,0,.21-.21V13.52l0,0ZM13,13.38l-.06-.05L12,12.38l1.8-1.23.48.5-1.11,1.7Zm-.62-1,.65.65.92-1.39-.19-.2Zm-2,1-.13,0-.05,0L9,11.65l.48-.5,1.8,1.23Zm-1-1.7.92,1.39.65-.65-1.38-.94ZM3.7,13.17a.84.84,0,0,1-.59-.24l-.39-.36,0-.09a.6.6,0,0,0,.06-.27v-.53l.17.05a2.27,2.27,0,0,0,1.41,0l.16-.05v.53a.6.6,0,0,0,.07.27l0,.09-.38.36A.86.86,0,0,1,3.7,13.17ZM3,12.51l.25.24a.63.63,0,0,0,.85,0l.25-.24a.73.73,0,0,1-.06-.3V12a2.6,2.6,0,0,1-1.24,0v.19A.73.73,0,0,1,3,12.51Zm16.16.62-.91-.9,0-.07a.88.88,0,0,0,0-.17v-.32l.16.06a2.32,2.32,0,0,0,.63.11h.08a2.33,2.33,0,0,0,.7-.11l.16-.05V12a.55.55,0,0,0,0,.17v.06Zm-.63-1,.63.63.63-.64s0-.08,0-.12a2.69,2.69,0,0,1-.7.07,2.34,2.34,0,0,1-.53-.08C18.57,12.06,18.56,12.1,18.56,12.15ZM5,12.11v-.65l0,0a2.4,2.4,0,0,0,.85-1L6.07,10l.06.45a4,4,0,0,0,.19.78l0,.07,0,.05a2.52,2.52,0,0,1-1.14.74Zm.25-.52v.16a2.44,2.44,0,0,0,.81-.54A3.64,3.64,0,0,1,6,10.82,2.71,2.71,0,0,1,5.25,11.59Zm-2.84.52L2.24,12a2.47,2.47,0,0,1-1.13-.73l-.05-.05,0-.07a3.46,3.46,0,0,0,.18-.78L1.34,10l.17.42a2.4,2.4,0,0,0,.85,1l.05,0Zm-1.06-.9a2.44,2.44,0,0,0,.81.54v-.16a2.71,2.71,0,0,1-.7-.77C1.42,11,1.39,11.09,1.35,11.21Zm10.28.88-2-1.33v-.9l.18.1a3.73,3.73,0,0,0,1.52.43,3.78,3.78,0,0,0,2-.42l.18-.1v.89Zm-1.7-1.46,1.7,1.16,1.7-1.16v-.35a4,4,0,0,1-2,.36,3.93,3.93,0,0,1-1.43-.37Zm9.25.79h-.05a2,2,0,0,1-1.89-2V8.75a.17.17,0,0,0,0-.1L17,8.24a1.17,1.17,0,0,1-.13-.55,1.59,1.59,0,0,1,1.58-1.61h3V7.6a1.58,1.58,0,0,1-.17.71l-.17.34a.16.16,0,0,0,0,.1v.72a1.91,1.91,0,0,1-.6,1.4h0A1.94,1.94,0,0,1,19.18,11.42Zm-.72-5.09a1.34,1.34,0,0,0-1.33,1.34,1,1,0,0,0,.1.46l.21.41a.54.54,0,0,1,0,.21v.63a1.76,1.76,0,0,0,1.64,1.79h.05a1.7,1.7,0,0,0,1.19-.48h0a1.72,1.72,0,0,0,.52-1.22V8.75a.49.49,0,0,1,0-.21l.17-.34a1.24,1.24,0,0,0,.15-.6V6.33ZM3.7,11.42A2,2,0,0,1,1.75,9.47a.21.21,0,0,0-.24-.21l-.15,0V9c0-.22,0-.42,0-.6a2.66,2.66,0,0,1,.72-1.65A2.22,2.22,0,0,1,3.7,6.08a2.24,2.24,0,0,1,1.6.67A2.65,2.65,0,0,1,6,8.4c0,.18,0,.38,0,.6v.52l-.23-.34A3,3,0,0,0,4.22,8,4.09,4.09,0,0,0,3,7.82a.2.2,0,0,0-.15.06l-.61.63a.21.21,0,0,0,.31.29l.54-.56h.06A2.85,2.85,0,0,1,5.62,9.7v.07A2,2,0,0,1,3.7,11.42ZM1.62,9A.46.46,0,0,1,2,9.47a1.7,1.7,0,0,0,3.38.3A2.6,2.6,0,0,0,3.17,8.5L2.71,9A.46.46,0,0,1,2,8.34l.61-.63A.45.45,0,0,1,3,7.57a4.07,4.07,0,0,1,1.32.2,3.28,3.28,0,0,1,1.49,1,2.66,2.66,0,0,0,0-.3,2.31,2.31,0,0,0-.64-1.49,2,2,0,0,0-2.83,0,2.32,2.32,0,0,0-.65,1.49c0,.17,0,.37,0,.59Zm10,1H11.4A3.47,3.47,0,0,1,8.24,6.46V5.63a.24.24,0,0,0,0-.09,3.34,3.34,0,0,1-.34-1.48V3.34A2.68,2.68,0,0,1,10.55.67h4.83V4.06A3.34,3.34,0,0,1,15,5.54a.24.24,0,0,0,0,.09v1A3.37,3.37,0,0,1,14,9.06l-.27.23A3.37,3.37,0,0,1,11.64,10ZM10.55.92A2.42,2.42,0,0,0,8.13,3.34v.72a3.09,3.09,0,0,0,.31,1.37.46.46,0,0,1,.05.2v.83a3.22,3.22,0,0,0,2.93,3.26,3.08,3.08,0,0,0,2.1-.63l.26-.21a3.12,3.12,0,0,0,1-2.29v-1a.46.46,0,0,1,.05-.2,3.23,3.23,0,0,0,.31-1.37V.92Z"/></g></g></g><g id="_Group_8" data-name="&lt;Group&gt;"><g id="_Group_9" data-name="&lt;Group&gt;"><g id="_Group_10" data-name="&lt;Group&gt;"><path class="cls-1" d="M21.35,14.17a.34.34,0,0,0-.34.34v2.16a.34.34,0,1,0,.67,0V14.51A.34.34,0,0,0,21.35,14.17Z"/><path class="cls-1" d="M21.35,17.13a.46.46,0,0,1-.47-.46V14.51a.47.47,0,0,1,.93,0v2.16A.46.46,0,0,1,21.35,17.13Zm0-2.83a.21.21,0,0,0-.22.21v2.16a.21.21,0,0,0,.22.21.21.21,0,0,0,.21-.21V14.51A.21.21,0,0,0,21.35,14.3Z"/></g></g></g><g id="_Group_11" data-name="&lt;Group&gt;"><g id="_Group_12" data-name="&lt;Group&gt;"><g id="_Group_13" data-name="&lt;Group&gt;"><path class="cls-1" d="M1.9,14.62a.34.34,0,0,0-.33.34v1.71a.34.34,0,1,0,.67,0V15A.34.34,0,0,0,1.9,14.62Z"/><path class="cls-1" d="M1.9,17.13a.46.46,0,0,1-.46-.46V15a.47.47,0,0,1,.93,0v1.71A.46.46,0,0,1,1.9,17.13Zm0-2.38a.21.21,0,0,0-.21.21v1.71a.21.21,0,0,0,.21.21.21.21,0,0,0,.22-.21V15A.21.21,0,0,0,1.9,14.75Z"/></g></g></g><g id="_Group_14" data-name="&lt;Group&gt;"><g id="_Group_15" data-name="&lt;Group&gt;"><g id="_Group_16" data-name="&lt;Group&gt;"><path class="cls-1" d="M14.39,4.19c-1.28-1.28-3.94-1-5-.87A.69.69,0,0,0,8.77,4v.77a.34.34,0,1,0,.67,0V4a0,0,0,0,1,0,0,10.3,10.3,0,0,1,2.19-.11,3.47,3.47,0,0,1,2.26.78.34.34,0,0,0,.48,0A.33.33,0,0,0,14.39,4.19Z"/><path class="cls-1" d="M9.11,5.25a.46.46,0,0,1-.46-.46V4a.81.81,0,0,1,.69-.81c1.11-.17,3.83-.41,5.14.9h0a.46.46,0,0,1,0,.65.47.47,0,0,1-.66,0A3.34,3.34,0,0,0,11.64,4a10.29,10.29,0,0,0-2.07.1v.69A.47.47,0,0,1,9.11,5.25Zm2-1.94a11.94,11.94,0,0,0-1.71.13A.57.57,0,0,0,8.9,4v.78A.21.21,0,0,0,9.11,5a.22.22,0,0,0,.21-.21V3.9l.13,0a11.14,11.14,0,0,1,2.21-.11A3.64,3.64,0,0,1,14,4.57a.2.2,0,0,0,.3,0,.22.22,0,0,0,0-.3A4.64,4.64,0,0,0,11.09,3.31Z"/></g></g></g><g id="_Group_17" data-name="&lt;Group&gt;"><g id="_Group_18" data-name="&lt;Group&gt;"><g id="_Group_19" data-name="&lt;Group&gt;"><path class="cls-1" d="M7.67,14.89a.34.34,0,0,0-.34.34v1.44a.34.34,0,1,0,.67,0V15.23A.34.34,0,0,0,7.67,14.89Z"/><path class="cls-1" d="M7.67,17.13a.45.45,0,0,1-.46-.46V15.23a.46.46,0,0,1,.46-.46.47.47,0,0,1,.46.46v1.44A.46.46,0,0,1,7.67,17.13Zm0-2.11a.21.21,0,0,0-.21.21v1.44a.21.21,0,0,0,.21.21.21.21,0,0,0,.21-.21V15.23A.21.21,0,0,0,7.67,15Z"/></g></g></g><g id="_Group_20" data-name="&lt;Group&gt;"><g id="_Group_21" data-name="&lt;Group&gt;"><g id="_Group_22" data-name="&lt;Group&gt;"><path class="cls-1" d="M15.59,14.89a.35.35,0,0,0-.34.34v1.44a.34.34,0,0,0,.34.34.34.34,0,0,0,.34-.34V15.23A.34.34,0,0,0,15.59,14.89Z"/><path class="cls-1" d="M15.59,17.13a.46.46,0,0,1-.46-.46V15.23a.47.47,0,0,1,.46-.46.46.46,0,0,1,.46.46v1.44A.45.45,0,0,1,15.59,17.13Zm0-2.11a.21.21,0,0,0-.21.21v1.44a.21.21,0,1,0,.42,0V15.23A.21.21,0,0,0,15.59,15Z"/></g></g></g></g></g></g></svg>