<svg xmlns="http://www.w3.org/2000/svg" viewBox="0 0 23.98 22.06"><defs><style>.cls-1{fill:#b2b2b2;}</style></defs><title>Asset 20</title><g id="Layer_2" data-name="Layer 2"><g id="katman_1" data-name="katman 1"><path id="_Compound_Path_" data-name="&lt;Compound Path&gt;" class="cls-1" d="M11.92,3.9A6.27,6.27,0,0,1,17.67,0c3.46,0,5.95,3,6.27,6.5A6.45,6.45,0,0,1,23.74,9a10.88,10.88,0,0,1-3.31,5.52l-8.51,7.59L3.55,14.47A10.88,10.88,0,0,1,.24,9,6.45,6.45,0,0,1,0,6.5C.35,3,2.85,0,6.31,0a6.08,6.08,0,0,1,5.61,3.9Z"/></g></g></svg>