<svg xmlns="http://www.w3.org/2000/svg" viewBox="0 0 24.98 23.23"><defs><style>.cls-1{fill:#b2b2b2;}</style></defs><title>heart-empty</title><g id="Layer_2" data-name="Layer 2"><g id="katman_1" data-name="katman 1"><g id="_Group_" data-name="&lt;Group&gt;"><path class="cls-1" d="M12.41,23.23l-8.7-7.89A11.33,11.33,0,0,1,.25,9.56,6.8,6.8,0,0,1,.05,6.9C.4,2.92,3.24,0,6.81,0a6.49,6.49,0,0,1,5.61,3.29A6.73,6.73,0,0,1,18.17,0c3.56,0,6.41,2.92,6.77,7h0a7.11,7.11,0,0,1-.22,2.61,11.27,11.27,0,0,1-3.46,5.78ZM6.81,1C3.77,1,1.35,3.54,1,7a6,6,0,0,0,.19,2.29,10.22,10.22,0,0,0,3.16,5.26l8,7.3,8.17-7.3a10.22,10.22,0,0,0,3.16-5.26A6.16,6.16,0,0,0,24,7.09C23.63,3.54,21.2,1,18.17,1a5.78,5.78,0,0,0-5.29,3.59l-.46,1.09L12,4.59A5.62,5.62,0,0,0,6.81,1Z"/></g></g></g></svg>