<svg xmlns="http://www.w3.org/2000/svg" viewBox="0 0 15.71 15.71"><defs><style>.cls-1{opacity:0.6;}.cls-2{fill:#b2b2b2;}</style></defs><title>Asset 29</title><g id="Layer_2" data-name="Layer 2"><g id="katman_1" data-name="katman 1"><g class="cls-1"><path class="cls-2" d="M11.48,7.85c4.13-.29,4.23-2.65,4.23-4.91h-3V0H2.94V2.94H0C0,5.2.1,7.56,4.22,7.85a3.86,3.86,0,0,0,2.65,2v3.92c-2.94,0-2.94,2-2.94,2h7.85s0-2-2.95-2V9.82a3.86,3.86,0,0,0,2.65-2Zm1.28-3.92h2c-.1,1.57-.4,2.65-2.65,2.84a10.29,10.29,0,0,0,.68-2.84ZM1,3.93h2a10.27,10.27,0,0,0,.69,2.84C1.47,6.58,1.08,5.5,1,3.93ZM4.42,6a12,12,0,0,1-.49-3.05V1h1v2A13.1,13.1,0,0,0,5.3,6,8,8,0,0,0,6.87,8.83S5.1,8.64,4.42,6Z"/></g></g></g></svg>