<svg xmlns="http://www.w3.org/2000/svg" viewBox="0 0 13.02 17.36"><defs><style>.cls-1{fill:#f05a24;}</style></defs><title>Asset 5</title><g id="Layer_2" data-name="Layer 2"><g id="katman_1" data-name="katman 1"><path class="cls-1" d="M13,16.75l-2.29-4.84a.38.38,0,0,0-.22-.21l-1.13-.51,2-3.31v0a5.41,5.41,0,0,0-1-6.3,5.41,5.41,0,0,0-9.2,3.81A5.5,5.5,0,0,0,1.7,7.86l0,0,2,3.31-1.15.51a.43.43,0,0,0-.21.21L0,16.75a.44.44,0,0,0,.08.49.45.45,0,0,0,.48.09l2.87-1.28,2.87,1.28a.43.43,0,0,0,.35,0l2.86-1.28,2.87,1.28a.57.57,0,0,0,.18,0,.42.42,0,0,0,.38-.61ZM2,5.37A4.56,4.56,0,0,1,6.45.86,4.56,4.56,0,0,1,11.06,5.4a4.56,4.56,0,0,1-.49,2.06L6.88,13.64a.42.42,0,0,1-.37.2.44.44,0,0,1-.37-.2L2.46,7.46A4.44,4.44,0,0,1,2,5.37Zm7.76,9.82a.43.43,0,0,0-.35,0L6.51,16.47,3.64,15.19a.4.4,0,0,0-.34,0l-2,.88L3,12.42l1.09-.49,1.28,2.14a1.26,1.26,0,0,0,1.1.63,1.28,1.28,0,0,0,1.11-.63l1.27-2.14,1.1.49,1.73,3.65Z"/><path class="cls-1" d="M8.47,5.4a2,2,0,1,0-2,2A2,2,0,0,0,8.47,5.4Zm-3.06,0a1.1,1.1,0,0,1,2.2,0,1.1,1.1,0,0,1-2.2,0Z"/></g></g></svg>