<svg xmlns="http://www.w3.org/2000/svg" viewBox="0 0 17.78 14.96"><defs><style>.cls-1{opacity:0.6;}.cls-2{fill:#b2b2b2;}</style></defs><title>Asset 30</title><g id="Layer_2" data-name="Layer 2"><g id="katman_1" data-name="katman 1"><g class="cls-1"><path class="cls-2" d="M10.73,2.57A3.22,3.22,0,0,1,12.23,5a2.68,2.68,0,0,0,1.1.24,2.61,2.61,0,1,0-2.6-2.64ZM9,7.9A2.61,2.61,0,1,0,6.41,5.3,2.6,2.6,0,0,0,9,7.9Zm1.1.18H7.91a3.35,3.35,0,0,0-3.34,3.34v2.75l.19.06A15.43,15.43,0,0,0,9.31,15a9.17,9.17,0,0,0,4-.75l.17-.08h0V11.42a3.35,3.35,0,0,0-3.34-3.34Zm4.32-2.69h-2.2a3.21,3.21,0,0,1-1,2.24,4,4,0,0,1,2.83,3.79v.84a9,9,0,0,0,3.5-.74l.18-.09h0V8.73a3.35,3.35,0,0,0-3.34-3.34Zm-10-.18a2.63,2.63,0,0,0,1.39-.4A3.29,3.29,0,0,1,7,2.75a.66.66,0,0,0,0-.14,2.61,2.61,0,1,0-2.61,2.6ZM6.79,7.63a3.24,3.24,0,0,1-1-2.23H3.34A3.35,3.35,0,0,0,0,8.73v2.75l.18.06a15.94,15.94,0,0,0,3.76.7v-.82A4,4,0,0,1,6.79,7.63Z"/></g></g></g></svg>