<svg xmlns="http://www.w3.org/2000/svg" viewBox="0 0 32.63 46.77"><defs><style>.cls-1{fill:#fff;fill-rule:evenodd;}</style></defs><title>Asset 8</title><g id="Layer_2" data-name="Layer 2"><g id="katman_1" data-name="katman 1"><g id="_Group_" data-name="&lt;Group&gt;"><path id="_Compound_Path_" data-name="&lt;Compound Path&gt;" class="cls-1" d="M31.79,32.07H29.13V19.32c0-8.2-5.46-12.61-11.32-13.24V1.47A1.49,1.49,0,0,0,16.31,0h0a1.47,1.47,0,0,0-1.47,1.47V6.08C9,6.71,3.52,11.14,3.52,19.32V32.07H.85a.86.86,0,0,0-.85.86v4.52a.86.86,0,0,0,.85.86H31.77a.85.85,0,0,0,.86-.86V32.93a.84.84,0,0,0-.84-.86ZM16.17,46.77c2.75,0,5-2.48,5-5.59H11.21c0,3.11,2.24,5.59,5,5.59ZM11.37,11a.52.52,0,0,1,.3,0,.49.49,0,0,1,.25.18.42.42,0,0,1,0,.29.39.39,0,0,1-.18.24,8.89,8.89,0,0,0-2.54,1.94A6.9,6.9,0,0,0,7.77,16a8.37,8.37,0,0,0-.58,2.63,15.63,15.63,0,0,0,.06,2.89h0a.36.36,0,0,1-.1.29h0a.39.39,0,0,1-.26.14h0a.55.55,0,0,1-.28-.07v0a.37.37,0,0,1-.13-.27h0a15.35,15.35,0,0,1-.07-3A9.93,9.93,0,0,1,7,15.68a8.33,8.33,0,0,1,1.59-2.53A10.35,10.35,0,0,1,11.37,11Zm2.56,2.67a.31.31,0,0,1,.29,0h0a.37.37,0,0,1,.22.18h0a.37.37,0,0,1,0,.29h0a.35.35,0,0,1-.18.21h0A9.07,9.07,0,0,0,12.15,16,6.16,6.16,0,0,0,11,17.91a7.44,7.44,0,0,0-.48,2.19,12.44,12.44,0,0,0,.06,2.43h0a.42.42,0,0,1-.34.4.34.34,0,0,1-.28-.08h0a.31.31,0,0,1-.14-.26h0A14.79,14.79,0,0,1,9.72,20a8,8,0,0,1,.54-2.39,6.93,6.93,0,0,1,1.33-2.15,8.72,8.72,0,0,1,2.34-1.77Zm-1.46-.92a.34.34,0,0,1,.28,0A.32.32,0,0,1,13,13h0a.54.54,0,0,1,0,.28h0a.48.48,0,0,1-.18.24h0a7.69,7.69,0,0,0-2.14,1.61A6.06,6.06,0,0,0,9.5,17,7.15,7.15,0,0,0,9,19.17a14.17,14.17,0,0,0,0,2.43h0a.37.37,0,0,1-.08.28.46.46,0,0,1-.25.13.4.4,0,0,1-.28-.1h0a.48.48,0,0,1-.14-.24h0a12.25,12.25,0,0,1,0-2.56,8,8,0,0,1,.52-2.4,6.9,6.9,0,0,1,1.34-2.15,9.2,9.2,0,0,1,2.32-1.77Z"/></g></g></g></svg>