<svg xmlns="http://www.w3.org/2000/svg" viewBox="0 0 15.38 14.42"><defs><style>.cls-1{fill:#f05a24;}</style></defs><title>Asset 7</title><g id="Layer_2" data-name="Layer 2"><g id="katman_1" data-name="katman 1"><path class="cls-1" d="M3.84,1.92H1a1,1,0,0,0-1,1V13.46a1,1,0,0,0,1,1H3.84a1,1,0,0,0,1-1V2.88a1,1,0,0,0-1-1Zm-2.4,9.61A.48.48,0,0,1,1,11.05a.49.49,0,0,1,.48-.48.48.48,0,0,1,.48.48.47.47,0,0,1-.48.48Zm2.4-5.76H1v-1H3.84Zm0-1.93H1v-1H3.84Z"/><path class="cls-1" d="M10.09,12.5v-1H7.21v1a1,1,0,0,0-1,1h4.8a1,1,0,0,0-1-1Z"/><path class="cls-1" d="M14.42,0H2.88a1,1,0,0,0-1,1h12.5V8.65H5.77v1.92h8.65a1,1,0,0,0,1-1V1a1,1,0,0,0-1-1ZM8.65,10.09a.47.47,0,0,1-.48-.48.48.48,0,0,1,1,0,.47.47,0,0,1-.48.48Z"/></g></g></svg>