<svg xmlns="http://www.w3.org/2000/svg" viewBox="0 0 24.4 24.4"><defs><style>.cls-1{fill:#f05a24;}</style></defs><title>Asset 3</title><g id="Layer_2" data-name="Layer 2"><g id="katman_1" data-name="katman 1"><path class="cls-1" d="M23.08,1.31a4.48,4.48,0,0,0-6.33,0L3.28,14.71a.67.67,0,0,0-.19.28L0,23.37a.79.79,0,0,0,.17.79.77.77,0,0,0,.55.24.62.62,0,0,0,.23,0L8.57,22a.94.94,0,0,0,.32-.19L23.08,7.65a4.47,4.47,0,0,0,0-6.34ZM7.69,20.71l-2.84.87a3.24,3.24,0,0,0-.77-1.27,4.29,4.29,0,0,0-1-.73L4.34,16H6.1v1.52a.76.76,0,0,0,.76.77H8.21Zm11.22-11L9.63,19l.26-1.26a.72.72,0,0,0-.15-.63.72.72,0,0,0-.59-.29H7.62V15.25a.77.77,0,0,0-.76-.77H5.66l9.07-9h0a3,3,0,0,1,2.09-.87,3,3,0,0,1,2.09,5.05ZM22,6.57l-.71.72A4.47,4.47,0,0,0,17.11,3.1l.71-.71h0a3,3,0,0,1,5.05,2.09A2.89,2.89,0,0,1,22,6.57Zm-5-.25L9.37,13.94a.76.76,0,0,0,0,1.08.78.78,0,0,0,.54.23.76.76,0,0,0,.54-.23L18.07,7.4a.76.76,0,0,0,0-1.08.75.75,0,0,0-1.07,0Z"/></g></g></svg>