<svg xmlns="http://www.w3.org/2000/svg" viewBox="0 0 18.88 15.1"><defs><style>.cls-1{fill:#cbcbcb;}</style></defs><title>Asset 14</title><g id="Layer_2" data-name="Layer 2"><g id="katman_1" data-name="katman 1"><g id="_Group_" data-name="&lt;Group&gt;"><g id="_Group_2" data-name="&lt;Group&gt;"><path id="_Compound_Path_" data-name="&lt;Compound Path&gt;" class="cls-1" d="M9.44,5.66A2.84,2.84,0,1,0,12.27,8.5,2.84,2.84,0,0,0,9.44,5.66ZM17,2.83H14.73A.84.84,0,0,1,14,2.29L13.4.54A.85.85,0,0,0,12.65,0H6.23a.85.85,0,0,0-.75.54L4.9,2.29a.84.84,0,0,1-.75.54H1.89A1.89,1.89,0,0,0,0,4.72v8.5A1.89,1.89,0,0,0,1.89,15.1H17a1.89,1.89,0,0,0,1.89-1.88V4.72A1.89,1.89,0,0,0,17,2.83ZM9.44,13.22A4.72,4.72,0,1,1,14.16,8.5,4.72,4.72,0,0,1,9.44,13.22ZM16.33,6a.66.66,0,0,1,0-1.32.66.66,0,0,1,0,1.32Z"/></g></g></g></g></svg>