<svg xmlns="http://www.w3.org/2000/svg" viewBox="0 0 39.54 39"><defs><style>.cls-1{fill:#fff;}</style></defs><title>Asset 4</title><g id="Layer_2" data-name="Layer 2"><g id="katman_1" data-name="katman 1"><path class="cls-1" d="M26.26,15.81a5.35,5.35,0,0,1,.35,1.88,5.29,5.29,0,0,1-.35,1.87,4.84,4.84,0,0,1-1.11,1.66,5.12,5.12,0,0,1-1.68,1.11,5.17,5.17,0,0,1-3.84,0A5.12,5.12,0,0,1,18,21.22a5,5,0,0,1-1.12-1.66,4.92,4.92,0,0,1-.38-1.87,5,5,0,0,1,.38-1.88A4.88,4.88,0,0,1,18,14.16a4.8,4.8,0,0,1,1.68-1.1,5.44,5.44,0,0,1,3.84,0,4.8,4.8,0,0,1,1.68,1.1,4.71,4.71,0,0,1,1.11,1.65ZM39.54,19.5a18.69,18.69,0,0,1-.71,5.19,19.32,19.32,0,0,1-5.08,8.6,20,20,0,0,1-4,3,20.61,20.61,0,0,1-4.73,2,20.11,20.11,0,0,1-10.52,0,20.54,20.54,0,0,1-4.72-2A19.55,19.55,0,0,1,.71,24.69a19.32,19.32,0,0,1,0-10.38A19.54,19.54,0,0,1,9.79,2.67a20.54,20.54,0,0,1,4.72-2A19.52,19.52,0,0,1,19.77,0a19.35,19.35,0,0,1,7.69,1.54,20.08,20.08,0,0,1,6.29,4.17A19.84,19.84,0,0,1,38,11.91a18.75,18.75,0,0,1,1.56,7.59Zm-8.89-1.79A9.08,9.08,0,0,0,30,14.33a8.57,8.57,0,0,0-2-3,8.71,8.71,0,0,0-3-2,9.46,9.46,0,0,0-6.84,0,9.08,9.08,0,0,0-4.82,4.48,8.74,8.74,0,0,0-.81,2.89,9,9,0,0,0,.17,3,8.7,8.7,0,0,0,1.17,2.77L9.89,26.4a2.27,2.27,0,0,0-.72,1.68,2.14,2.14,0,0,0,.72,1.64,2.2,2.2,0,0,0,1.68.7,2.23,2.23,0,0,0,1.68-.7l4.11-4.06a9.28,9.28,0,0,0,5.52.94A9.17,9.17,0,0,0,28,24.06a8.57,8.57,0,0,0,2-3,9.06,9.06,0,0,0,.66-3.37Z"/></g></g></svg>