<svg xmlns="http://www.w3.org/2000/svg" viewBox="0 0 21.26 22.55"><defs><style>.cls-1{fill:#b2b2b2;}</style></defs><title>Asset 21</title><g id="Layer_2" data-name="Layer 2"><g id="katman_1" data-name="katman 1"><g id="_Group_" data-name="&lt;Group&gt;"><path id="_Compound_Path_" data-name="&lt;Compound Path&gt;" class="cls-1" d="M17.22,14.49A4,4,0,0,0,14,16.06L7.83,12.6a4,4,0,0,0,.23-1.33,3.91,3.91,0,0,0-.23-1.33L14,6.48A4,4,0,1,0,13.19,4a4,4,0,0,0,.23,1.34L7.23,8.82a4,4,0,1,0,0,4.89l6.19,3.47a4,4,0,0,0-.23,1.34,4,4,0,1,0,4-4Zm0-13.22A2.77,2.77,0,1,1,14.45,4a2.77,2.77,0,0,1,2.77-2.77ZM4,14A2.77,2.77,0,1,1,6.8,11.27,2.77,2.77,0,0,1,4,14Zm13.18,7.24A2.77,2.77,0,1,1,20,18.51a2.78,2.78,0,0,1-2.77,2.77Z"/></g></g></g></svg>