<svg xmlns="http://www.w3.org/2000/svg" viewBox="0 0 34.4 15.65"><defs><style>.cls-1{fill:#484b52;}</style></defs><title>Asset 12</title><g id="Layer_2" data-name="Layer 2"><g id="katman_1" data-name="katman 1"><path id="_Compound_Path_" data-name="&lt;Compound Path&gt;" class="cls-1" d="M32.26,4.63a2.6,2.6,0,0,1-2.61,2.5,2.47,2.47,0,0,1-2.46-2.5,2.46,2.46,0,0,1,2.46-2.48A2.59,2.59,0,0,1,32.26,4.63ZM29.65,0A4.67,4.67,0,0,0,25,4.62L22.13,8.78a1.55,1.55,0,0,0-.31,0A4.09,4.09,0,0,0,20,9.24L6.88,4A3.48,3.48,0,1,0,3.47,8.18a3.35,3.35,0,0,0,1.78-.49L18.45,13a3.31,3.31,0,0,0,3.37,2.68,3.48,3.48,0,0,0,3.38-3.08l4.45-3.26A4.71,4.71,0,0,0,34.4,4.65,4.71,4.71,0,0,0,29.65,0Zm0,1.53a3.13,3.13,0,1,1,0,6.25,3.13,3.13,0,0,1,0-6.25ZM3.47,2.15A2.56,2.56,0,0,1,5.74,3.5L4.47,3A2,2,0,0,0,3,6.77L4,7.2a2.38,2.38,0,0,1-.55.06,2.56,2.56,0,0,1,0-5.11ZM21.82,9.67a2.5,2.5,0,0,1,2.46,2.56,2.54,2.54,0,0,1-4.76,1.2,8.15,8.15,0,0,0,1.23.53,2,2,0,0,0,2.61-1.13,2.14,2.14,0,0,0-1.08-2.67l-1.07-.43a4.2,4.2,0,0,1,.61-.06Z"/></g></g></svg>