<svg xmlns="http://www.w3.org/2000/svg" viewBox="0 0 18.54 23"><defs><style>.cls-1{fill:#fff;}</style></defs><title>Asset 19</title><g id="Layer_2" data-name="Layer 2"><g id="katman_1" data-name="katman 1"><path class="cls-1" d="M12.11,14.94A2.13,2.13,0,0,1,14,13.84a1.15,1.15,0,0,0,1.28-1.28,2.1,2.1,0,0,1,1.09-1.9,1.15,1.15,0,0,0,.47-1.75,2.12,2.12,0,0,1,0-2.2A1.14,1.14,0,0,0,16.39,5a2.1,2.1,0,0,1-1.09-1.9A1.15,1.15,0,0,0,14,1.79,2.13,2.13,0,0,1,12.11.69,1.15,1.15,0,0,0,10.37.22a2.12,2.12,0,0,1-2.2,0A1.15,1.15,0,0,0,6.43.69a2.12,2.12,0,0,1-1.9,1.1A1.15,1.15,0,0,0,3.25,3.07,2.11,2.11,0,0,1,2.15,5a1.15,1.15,0,0,0-.47,1.74,2.12,2.12,0,0,1,0,2.2,1.15,1.15,0,0,0,.47,1.75,2.11,2.11,0,0,1,1.1,1.9,1.15,1.15,0,0,0,1.28,1.28,2.11,2.11,0,0,1,1.9,1.1,1.14,1.14,0,0,0,1.74.46,2.17,2.17,0,0,1,2.2,0A1.14,1.14,0,0,0,12.11,14.94ZM9.27,12.41a4.6,4.6,0,1,1,4.6-4.6A4.59,4.59,0,0,1,9.27,12.41Z"/><path class="cls-1" d="M4.45,14.51c-.88,0-1-.41-1-.41L0,20.88l2.77-.31,1.53,2.3s3.18-6.65,3.18-6.6C5.83,16.22,6.49,14.56,4.45,14.51Z"/><path class="cls-1" d="M15.05,14.37c-2.52.26-2,.88-2.59,1.37a1.76,1.76,0,0,1-1.49.57L14.86,23l1-2.47,2.72.35Z"/><polygon class="cls-1" points="10.23 6.8 9.27 4.85 8.31 6.8 6.16 7.11 7.71 8.63 7.34 10.78 9.27 9.77 11.2 10.78 10.83 8.63 12.39 7.11 10.23 6.8"/></g></g></svg>