<svg xmlns="http://www.w3.org/2000/svg" viewBox="0 0 20.65 17.71"><defs><style>.cls-1{opacity:0.6;}.cls-2{fill:#b2b2b2;}</style></defs><title>Asset 28</title><g id="Layer_2" data-name="Layer 2"><g id="katman_1" data-name="katman 1"><g class="cls-1"><path class="cls-2" d="M7.61,11.11H18c.59,0,.91-.64,1.08-1.21l1.56-7.3H5L6.54,9.9c.12.58.48,1.21,1.07,1.21Zm8.76-1.87,1.08-5.06a.53.53,0,0,1,.63-.42.55.55,0,0,1,.42.64L17.42,9.47a.53.53,0,0,1-.52.42h-.12a.54.54,0,0,1-.41-.64Zm-2.7.08L14,4.25a.54.54,0,1,1,1.07.08l-.36,5.06a.53.53,0,0,1-.53.5h0a.54.54,0,0,1-.5-.57ZM10.94,3.75a.55.55,0,0,1,.58.5l.36,5.07a.54.54,0,0,1-.5.57h0a.54.54,0,0,1-.54-.5l-.36-5.06a.55.55,0,0,1,.5-.58Zm-3.48,0a.54.54,0,0,1,.64.42L9.18,9.24a.54.54,0,0,1-.42.64H8.65a.54.54,0,0,1-.53-.42L7.05,4.4a.54.54,0,0,1,.41-.64Z"/><path class="cls-2" d="M8.3,14a1.84,1.84,0,1,0,1.83,1.84A1.84,1.84,0,0,0,8.3,14Zm0,2.52a.68.68,0,0,1-.69-.68.69.69,0,1,1,1.37,0,.67.67,0,0,1-.68.68Z"/><path class="cls-2" d="M17,14a1.84,1.84,0,1,0,1.84,1.84A1.84,1.84,0,0,0,17,14Zm0,2.52a.68.68,0,0,1-.69-.68.69.69,0,0,1,1.38,0,.68.68,0,0,1-.69.68Z"/><path class="cls-2" d="M19.8,13.29H5.9a1.06,1.06,0,0,1-1-.83L2.26,1.25H.62A.63.63,0,0,1,.62,0H2.4a1.06,1.06,0,0,1,1,.83L6,12H19.8a.63.63,0,1,1,0,1.25Z"/></g></g></g></svg>