<svg xmlns="http://www.w3.org/2000/svg" viewBox="0 0 23.03 15.39"><defs><style>.cls-1{fill:#cbcbcb;}</style></defs><title>Asset 13</title><g id="Layer_2" data-name="Layer 2"><g id="katman_1" data-name="katman 1"><g id="_Group_" data-name="&lt;Group&gt;"><path id="_Path_" data-name="&lt;Path&gt;" class="cls-1" d="M15.53,3,13.74,3l0-1.9A1.15,1.15,0,0,0,12.56,0L.38.17a.38.38,0,1,0,0,.76L12.57.76a.4.4,0,0,1,.39.38L13,3,1.3,3.2A1.27,1.27,0,0,0,.05,4.48l.14,9.67a1.26,1.26,0,0,0,1.28,1.24l14.23-.2a1.26,1.26,0,0,0,1.24-1.28l-.13-9.66A1.26,1.26,0,0,0,15.53,3Z"/><path id="_Path_2" data-name="&lt;Path&gt;" class="cls-1" d="M21.45,2.75a1.4,1.4,0,0,0-.6.15L17.57,4.64l.13,8.86L21,15.15a1.38,1.38,0,0,0,.6.13A1.44,1.44,0,0,0,23,13.82L22.9,4.17A1.44,1.44,0,0,0,21.45,2.75Z"/></g></g></g></svg>