<svg xmlns="http://www.w3.org/2000/svg" viewBox="0 0 24.84 17.37"><defs><style>.cls-1{fill:#484b52;}</style></defs><title>Asset 11</title><g id="Layer_2" data-name="Layer 2"><g id="katman_1" data-name="katman 1"><path id="_Compound_Path_" data-name="&lt;Compound Path&gt;" class="cls-1" d="M13.32,17.37c-3.53,0-6.24-.06-8.95-.28-.45,0-.89-.1-1.33-.18A3.13,3.13,0,0,1,.43,14.34a23,23,0,0,1-.38-3.5A42.28,42.28,0,0,1,.15,5.1c.06-.66.14-1.32.26-2A3.14,3.14,0,0,1,3.34.37C4.59.23,5.85.12,7.11.09,9.69,0,12.28,0,14.86,0c1.94,0,3.88.17,5.82.27a9.27,9.27,0,0,1,1,.14,3.11,3.11,0,0,1,2.69,2.67,22.45,22.45,0,0,1,.37,3.47,40.53,40.53,0,0,1-.1,5.62,17.52,17.52,0,0,1-.32,2.29,3,3,0,0,1-2.65,2.46c-1.07.15-2.16.24-3.25.29C16.48,17.3,14.49,17.34,13.32,17.37Zm-3.36-5,6.43-3.69L10,5Z"/></g></g></svg>